<svg xmlns="http://www.w3.org/2000/svg" width="1400" height="760" viewBox="0 0 1400 760" role="img" aria-labelledby="layers-title layers-desc">
  <title id="layers-title">cloud-ai-security-skills architecture layers</title>
  <desc id="layers-desc">Seven skill layers presented as a clean architecture board. Signals feed intake layers ingest and discover. Intake feeds analyze layers detect and evaluate. Analyze feeds act layers remediate and view. Output persists data to append-only sinks. The diagram emphasizes counts, role of each layer, and wire-format guidance without dense text.</desc>

  <defs>
    <linearGradient id="bg" x1="0" y1="0" x2="1" y2="1">
      <stop offset="0%" stop-color="#07101f"/>
      <stop offset="100%" stop-color="#0f1b31"/>
    </linearGradient>
    <radialGradient id="glow" cx="20%" cy="10%" r="80%">
      <stop offset="0%" stop-color="#2563eb" stop-opacity="0.16"/>
      <stop offset="60%" stop-color="#2563eb" stop-opacity="0"/>
      <stop offset="100%" stop-color="#2563eb" stop-opacity="0"/>
    </radialGradient>
    <pattern id="grid" x="0" y="0" width="36" height="36" patternUnits="userSpaceOnUse">
      <path d="M36 0H0V36" fill="none" stroke="#1d2942" stroke-opacity="0.35" stroke-width="1"/>
    </pattern>
    <filter id="shadow" x="-20%" y="-20%" width="140%" height="140%">
      <feDropShadow dx="0" dy="14" stdDeviation="18" flood-color="#020617" flood-opacity="0.45"/>
    </filter>
    <marker id="arrow" viewBox="0 0 10 10" refX="9" refY="5" markerWidth="8" markerHeight="8" orient="auto">
      <path d="M0 0L10 5L0 10z" fill="#7dd3fc"/>
    </marker>
  </defs>

  <rect width="1400" height="760" fill="url(#bg)"/>
  <rect width="1400" height="760" fill="url(#grid)"/>
  <rect width="1400" height="760" fill="url(#glow)"/>

  <g font-family="Inter, Arial, sans-serif">
    <text x="72" y="76" font-size="38" font-weight="800" fill="#f8fafc">Architecture: seven skill layers, one readable flow</text>
    <text x="72" y="112" font-size="18" fill="#cbd5e1">Signals enter on the left. The repo normalizes, analyzes, acts, then persists through producer-owned sinks.</text>

    <g transform="translate(72,156)">
      <rect x="0" y="0" width="160" height="40" rx="20" fill="#0f172a" stroke="#475569"/>
      <text x="80" y="26" text-anchor="middle" font-size="14" font-weight="800" fill="#cbd5e1" letter-spacing="1.5">SIGNALS</text>

      <rect x="240" y="0" width="160" height="40" rx="20" fill="#102345" stroke="#60a5fa"/>
      <text x="320" y="26" text-anchor="middle" font-size="14" font-weight="800" fill="#bfdbfe" letter-spacing="1.5">INTAKE</text>

      <rect x="510" y="0" width="170" height="40" rx="20" fill="#0a3b35" stroke="#34d399"/>
      <text x="595" y="26" text-anchor="middle" font-size="14" font-weight="800" fill="#bbf7d0" letter-spacing="1.5">ANALYZE</text>

      <rect x="790" y="0" width="150" height="40" rx="20" fill="#4a2d09" stroke="#fbbf24"/>
      <text x="865" y="26" text-anchor="middle" font-size="14" font-weight="800" fill="#fde68a" letter-spacing="1.5">ACT</text>

      <rect x="1050" y="0" width="160" height="40" rx="20" fill="#083b39" stroke="#2dd4bf"/>
      <text x="1130" y="26" text-anchor="middle" font-size="14" font-weight="800" fill="#99f6e4" letter-spacing="1.5">PERSIST</text>
    </g>

    <g filter="url(#shadow)">
      <rect x="72" y="228" width="190" height="386" rx="28" fill="#0f172a" stroke="#334155" stroke-width="1.5"/>
      <text x="110" y="278" font-size="30" font-weight="800" fill="#f8fafc">Signals</text>
      <g font-size="16" fill="#dbeafe">
        <rect x="102" y="314" width="128" height="38" rx="19" fill="#111c30" stroke="#334155"/>
        <text x="166" y="338" text-anchor="middle">Cloud APIs</text>
        <rect x="102" y="366" width="128" height="38" rx="19" fill="#111c30" stroke="#334155"/>
        <text x="166" y="390" text-anchor="middle">Raw logs</text>
        <rect x="102" y="418" width="128" height="38" rx="19" fill="#111c30" stroke="#334155"/>
        <text x="166" y="442" text-anchor="middle">Identity</text>
        <rect x="102" y="470" width="128" height="38" rx="19" fill="#111c30" stroke="#334155"/>
        <text x="166" y="494" text-anchor="middle">Warehouses</text>
      </g>
      <text x="110" y="548" font-size="15" fill="#94a3b8">AWS, GCP, Azure, K8s, Okta,</text>
      <text x="110" y="572" font-size="15" fill="#94a3b8">Entra, Workspace, Snowflake,</text>
      <text x="110" y="596" font-size="15" fill="#94a3b8">Databricks, S3, ClickHouse.</text>
    </g>

    <g filter="url(#shadow)">
      <rect x="322" y="228" width="220" height="170" rx="28" fill="#112244" stroke="#60a5fa" stroke-width="1.6"/>
      <text x="354" y="272" font-size="18" font-weight="800" fill="#dbeafe">L1 Ingest</text>
      <text x="354" y="334" font-size="58" font-weight="900" fill="#ffffff">15 + 3</text>
      <text x="354" y="370" font-size="18" fill="#bfdbfe">normalize source data to OCSF or native JSONL</text>

      <rect x="322" y="430" width="220" height="170" rx="28" fill="#112244" stroke="#60a5fa" stroke-width="1.6"/>
      <text x="354" y="474" font-size="18" font-weight="800" fill="#dbeafe">L2 Discover</text>
      <text x="354" y="536" font-size="58" font-weight="900" fill="#ffffff">4</text>
      <text x="354" y="572" font-size="18" fill="#bfdbfe">inventory, AI BOM, graph, evidence collection</text>
    </g>

    <g filter="url(#shadow)">
      <rect x="592" y="228" width="220" height="170" rx="28" fill="#0a3b35" stroke="#34d399" stroke-width="1.6"/>
      <text x="624" y="272" font-size="18" font-weight="800" fill="#d1fae5">L3 Detect</text>
      <text x="624" y="334" font-size="58" font-weight="900" fill="#ffffff">12</text>
      <text x="624" y="370" font-size="18" fill="#a7f3d0">deterministic MITRE-tagged findings in OCSF 2004</text>

      <rect x="592" y="430" width="220" height="170" rx="28" fill="#0a3b35" stroke="#34d399" stroke-width="1.6"/>
      <text x="624" y="474" font-size="18" font-weight="800" fill="#d1fae5">L4 Evaluate</text>
      <text x="624" y="536" font-size="58" font-weight="900" fill="#ffffff">7</text>
      <text x="624" y="572" font-size="18" fill="#a7f3d0">82 CIS, Kubernetes, container, and AI checks</text>
    </g>

    <g filter="url(#shadow)">
      <rect x="862" y="228" width="220" height="170" rx="28" fill="#4a2d09" stroke="#fbbf24" stroke-width="1.6"/>
      <text x="894" y="272" font-size="18" font-weight="800" fill="#fde68a">L5 Remediate</text>
      <text x="894" y="334" font-size="58" font-weight="900" fill="#ffffff">8</text>
      <text x="894" y="370" font-size="18" fill="#fde68a">HITL, dry-run-first, dual-audited write paths</text>

      <rect x="862" y="430" width="220" height="170" rx="28" fill="#4a2d09" stroke="#fbbf24" stroke-width="1.6"/>
      <text x="894" y="474" font-size="18" font-weight="800" fill="#fde68a">L6 View</text>
      <text x="894" y="536" font-size="58" font-weight="900" fill="#ffffff">2</text>
      <text x="894" y="572" font-size="18" fill="#fde68a">render OCSF to SARIF or Mermaid for review</text>
    </g>

    <g filter="url(#shadow)">
      <rect x="1132" y="228" width="196" height="372" rx="28" fill="#083b39" stroke="#2dd4bf" stroke-width="1.6"/>
      <text x="1164" y="272" font-size="18" font-weight="800" fill="#99f6e4">L7 Output</text>
      <text x="1164" y="334" font-size="58" font-weight="900" fill="#ffffff">3</text>
      <text x="1164" y="370" font-size="18" fill="#99f6e4">append-only sinks</text>
      <g font-size="18" fill="#ecfeff">
        <text x="1164" y="434">S3</text>
        <text x="1164" y="470">Snowflake</text>
        <text x="1164" y="506">ClickHouse</text>
      </g>
      <text x="1164" y="560" font-size="16" fill="#99f6e4">Audit trails and ingest-back</text>
      <text x="1164" y="584" font-size="16" fill="#99f6e4">stay tied to producer-owned flows.</text>
    </g>

    <path d="M262 420H304" stroke="#7dd3fc" stroke-width="4" fill="none" marker-end="url(#arrow)"/>
    <path d="M542 314H574" stroke="#7dd3fc" stroke-width="4" fill="none" marker-end="url(#arrow)"/>
    <path d="M542 516H574" stroke="#7dd3fc" stroke-width="4" fill="none" marker-end="url(#arrow)"/>
    <path d="M812 314H844" stroke="#7dd3fc" stroke-width="4" fill="none" marker-end="url(#arrow)"/>
    <path d="M812 516H844" stroke="#7dd3fc" stroke-width="4" fill="none" marker-end="url(#arrow)"/>
    <path d="M1082 420H1114" stroke="#7dd3fc" stroke-width="4" fill="none" marker-end="url(#arrow)"/>

    <rect x="72" y="658" width="1256" height="48" rx="18" fill="#0b1220" stroke="#334155"/>
    <text x="102" y="689" font-size="18" fill="#cbd5e1">Wire contract: OCSF 1.8 where interop matters, native where state and audit matter more, rendered output on view, pass-through on sinks.</text>
  </g>
</svg>
