<svg xmlns="http://www.w3.org/2000/svg" width="1400" height="780" viewBox="0 0 1400 780" role="img" aria-labelledby="cm-title cm-desc">
  <title id="cm-title">cloud-ai-security-skills — detection and posture coverage matrix</title>
  <desc id="cm-desc">Coverage matrix visualizing the gap between shipped detection and posture skills and their paired remediation. Rows list every detection (11) plus every CSPM benchmark family (4 native CIS scopes). Columns are: detector or check shipped, paired remediation shipped, paired remediation planned. Green cells mean a closed loop is shipped; amber cells mean a remediation skill is on the roadmap (linked to a tracking issue); red cells mean no remediation exists or is planned. Three out of eleven detection rows are green-green-green closed loops today (Okta MFA fatigue, Okta credential stuffing, K8s container escape). Eight detection rows are red on the remediation column, with five of those amber because issues 238, 239, 240, 241, and 242 plan the work. The matrix is the single source of truth for closed-loop coverage and updates whenever a remediation skill ships.</desc>

  <defs>
    <linearGradient id="bg2" x1="0" y1="0" x2="1" y2="1">
      <stop offset="0%" stop-color="#060b17"/>
      <stop offset="100%" stop-color="#0a1325"/>
    </linearGradient>
    <pattern id="grid2" x="0" y="0" width="40" height="40" patternUnits="userSpaceOnUse">
      <path d="M40 0H0V40" fill="none" stroke="#1e293b" stroke-opacity="0.25" stroke-width="1"/>
    </pattern>
  </defs>

  <rect width="1400" height="780" fill="url(#bg2)"/>
  <rect width="1400" height="780" fill="url(#grid2)"/>

  <!-- Header -->
  <text x="48" y="56" fill="#f1f5f9" font-family="Inter, system-ui, sans-serif" font-size="26" font-weight="900">Closed-loop coverage matrix</text>
  <text x="48" y="84" fill="#94a3b8" font-family="Inter, system-ui, sans-serif" font-size="14">Every shipped detection or posture check, mapped to whether a paired remediation exists, is planned, or is missing. Green rows are closed loops. The red wall on the remediation column is tracked at issue #155.</text>

  <!-- Legend -->
  <g transform="translate(48,108)" font-family="Inter, system-ui, sans-serif" font-size="12">
    <g>
      <rect x="0" y="0" width="14" height="14" rx="3" fill="#16a34a" stroke="#22c55e"/>
      <text x="22" y="11" fill="#dcfce7">shipped (closed loop)</text>
    </g>
    <g transform="translate(190,0)">
      <rect x="0" y="0" width="14" height="14" rx="3" fill="#b45309" stroke="#f59e0b"/>
      <text x="22" y="11" fill="#fef3c7">planned (issue tracked)</text>
    </g>
    <g transform="translate(380,0)">
      <rect x="0" y="0" width="14" height="14" rx="3" fill="#7f1d1d" stroke="#ef4444"/>
      <text x="22" y="11" fill="#fee2e2">missing (no remediation, no issue)</text>
    </g>
    <g transform="translate(660,0)">
      <rect x="0" y="0" width="14" height="14" rx="3" fill="#1e3a8a" stroke="#3b82f6"/>
      <text x="22" y="11" fill="#dbeafe">N/A (no remediation needed)</text>
    </g>
  </g>

  <!-- Column headers -->
  <g transform="translate(48,150)" font-family="Inter, system-ui, sans-serif" font-size="12" font-weight="800" fill="#cbd5e1">
    <text x="0" y="14">Skill</text>
    <text x="540" y="14" text-anchor="middle">Detector / check</text>
    <text x="740" y="14" text-anchor="middle">Paired remediation</text>
    <text x="940" y="14" text-anchor="middle">Roadmap issue</text>
    <text x="1140" y="14">Notes</text>
  </g>
  <line x1="48" y1="160" x2="1352" y2="160" stroke="#334155" stroke-width="1"/>

  <!-- Section: Detection -->
  <g transform="translate(48,178)" font-family="Inter, system-ui, sans-serif">
    <text x="0" y="14" fill="#5eead4" font-size="13" font-weight="900">DETECTION (11)</text>

    <!-- Row template (y stride 30) -->
    <!-- 1: detect-okta-mfa-fatigue -->
    <g transform="translate(0,30)">
      <text x="0" y="14" fill="#f1f5f9" font-size="13">detect-okta-mfa-fatigue</text>
      <rect x="520" y="2" width="40" height="18" rx="4" fill="#16a34a" stroke="#22c55e"/>
      <rect x="720" y="2" width="40" height="18" rx="4" fill="#16a34a" stroke="#22c55e"/>
      <text x="940" y="14" text-anchor="middle" fill="#94a3b8" font-size="12">—</text>
      <text x="1140" y="14" fill="#dcfce7" font-size="12">→ remediate-okta-session-kill (closed)</text>
    </g>
    <!-- 2 -->
    <g transform="translate(0,60)">
      <text x="0" y="14" fill="#f1f5f9" font-size="13">detect-credential-stuffing-okta</text>
      <rect x="520" y="2" width="40" height="18" rx="4" fill="#16a34a" stroke="#22c55e"/>
      <rect x="720" y="2" width="40" height="18" rx="4" fill="#16a34a" stroke="#22c55e"/>
      <text x="940" y="14" text-anchor="middle" fill="#94a3b8" font-size="12">—</text>
      <text x="1140" y="14" fill="#dcfce7" font-size="12">→ remediate-okta-session-kill (closed)</text>
    </g>
    <!-- 3 -->
    <g transform="translate(0,90)">
      <text x="0" y="14" fill="#f1f5f9" font-size="13">detect-container-escape-k8s</text>
      <rect x="520" y="2" width="40" height="18" rx="4" fill="#16a34a" stroke="#22c55e"/>
      <rect x="720" y="2" width="40" height="18" rx="4" fill="#16a34a" stroke="#22c55e"/>
      <text x="940" y="14" text-anchor="middle" fill="#fde68a" font-size="12">#298 #299</text>
      <text x="1140" y="14" fill="#dcfce7" font-size="12">→ remediate-container-escape-k8s (closed)</text>
    </g>
    <!-- 4 -->
    <g transform="translate(0,120)">
      <text x="0" y="14" fill="#f1f5f9" font-size="13">detect-privilege-escalation-k8s</text>
      <rect x="520" y="2" width="40" height="18" rx="4" fill="#16a34a" stroke="#22c55e"/>
      <rect x="720" y="2" width="40" height="18" rx="4" fill="#b45309" stroke="#f59e0b"/>
      <text x="940" y="14" text-anchor="middle" fill="#fde68a" font-size="12">#241</text>
      <text x="1140" y="14" fill="#fef3c7" font-size="12">remediate-k8s-rbac-revoke (planned)</text>
    </g>
    <!-- 5 -->
    <g transform="translate(0,150)">
      <text x="0" y="14" fill="#f1f5f9" font-size="13">detect-sensitive-secret-read-k8s</text>
      <rect x="520" y="2" width="40" height="18" rx="4" fill="#16a34a" stroke="#22c55e"/>
      <rect x="720" y="2" width="40" height="18" rx="4" fill="#b45309" stroke="#f59e0b"/>
      <text x="940" y="14" text-anchor="middle" fill="#fde68a" font-size="12">#241</text>
      <text x="1140" y="14" fill="#fef3c7" font-size="12">remediate-k8s-rbac-revoke covers (planned)</text>
    </g>
    <!-- 6 -->
    <g transform="translate(0,180)">
      <text x="0" y="14" fill="#f1f5f9" font-size="13">detect-entra-credential-addition</text>
      <rect x="520" y="2" width="40" height="18" rx="4" fill="#16a34a" stroke="#22c55e"/>
      <rect x="720" y="2" width="40" height="18" rx="4" fill="#b45309" stroke="#f59e0b"/>
      <text x="940" y="14" text-anchor="middle" fill="#fde68a" font-size="12">#238</text>
      <text x="1140" y="14" fill="#fef3c7" font-size="12">iam-departures-azure-entra (planned)</text>
    </g>
    <!-- 7 -->
    <g transform="translate(0,210)">
      <text x="0" y="14" fill="#f1f5f9" font-size="13">detect-entra-role-grant-escalation</text>
      <rect x="520" y="2" width="40" height="18" rx="4" fill="#16a34a" stroke="#22c55e"/>
      <rect x="720" y="2" width="40" height="18" rx="4" fill="#b45309" stroke="#f59e0b"/>
      <text x="940" y="14" text-anchor="middle" fill="#fde68a" font-size="12">#238</text>
      <text x="1140" y="14" fill="#fef3c7" font-size="12">iam-departures-azure-entra (planned)</text>
    </g>
    <!-- 8 -->
    <g transform="translate(0,240)">
      <text x="0" y="14" fill="#f1f5f9" font-size="13">detect-google-workspace-suspicious-login</text>
      <rect x="520" y="2" width="40" height="18" rx="4" fill="#16a34a" stroke="#22c55e"/>
      <rect x="720" y="2" width="40" height="18" rx="4" fill="#7f1d1d" stroke="#ef4444"/>
      <text x="940" y="14" text-anchor="middle" fill="#fca5a5" font-size="12">— file new</text>
      <text x="1140" y="14" fill="#fee2e2" font-size="12">no Workspace session-kill skill yet</text>
    </g>
    <!-- 9 -->
    <g transform="translate(0,270)">
      <text x="0" y="14" fill="#f1f5f9" font-size="13">detect-lateral-movement</text>
      <rect x="520" y="2" width="40" height="18" rx="4" fill="#16a34a" stroke="#22c55e"/>
      <rect x="720" y="2" width="40" height="18" rx="4" fill="#7f1d1d" stroke="#ef4444"/>
      <text x="940" y="14" text-anchor="middle" fill="#fca5a5" font-size="12">— file new</text>
      <text x="1140" y="14" fill="#fee2e2" font-size="12">cross-cloud, response is per-arm</text>
    </g>
    <!-- 10 -->
    <g transform="translate(0,300)">
      <text x="0" y="14" fill="#f1f5f9" font-size="13">detect-mcp-tool-drift</text>
      <rect x="520" y="2" width="40" height="18" rx="4" fill="#16a34a" stroke="#22c55e"/>
      <rect x="720" y="2" width="40" height="18" rx="4" fill="#7f1d1d" stroke="#ef4444"/>
      <text x="940" y="14" text-anchor="middle" fill="#fca5a5" font-size="12">— file new</text>
      <text x="1140" y="14" fill="#fee2e2" font-size="12">remediate-mcp-tool-revoke candidate</text>
    </g>
    <!-- 11 -->
    <g transform="translate(0,330)">
      <text x="0" y="14" fill="#f1f5f9" font-size="13">detect-prompt-injection-mcp-proxy</text>
      <rect x="520" y="2" width="40" height="18" rx="4" fill="#16a34a" stroke="#22c55e"/>
      <rect x="720" y="2" width="40" height="18" rx="4" fill="#7f1d1d" stroke="#ef4444"/>
      <text x="940" y="14" text-anchor="middle" fill="#fca5a5" font-size="12">— file new</text>
      <text x="1140" y="14" fill="#fee2e2" font-size="12">remediate-mcp-proxy-quarantine candidate</text>
    </g>
  </g>

  <!-- Section: Evaluation / CSPM -->
  <g transform="translate(48,540)" font-family="Inter, system-ui, sans-serif">
    <text x="0" y="14" fill="#5eead4" font-size="13" font-weight="900">EVALUATION / CSPM (4 platforms · 82 checks)</text>

    <g transform="translate(0,30)">
      <text x="0" y="14" fill="#f1f5f9" font-size="13">cspm-aws-cis-benchmark</text>
      <rect x="520" y="2" width="40" height="18" rx="4" fill="#16a34a" stroke="#22c55e"/>
      <rect x="720" y="2" width="40" height="18" rx="4" fill="#b45309" stroke="#f59e0b"/>
      <text x="940" y="14" text-anchor="middle" fill="#fde68a" font-size="12">#242 #254</text>
      <text x="1140" y="14" fill="#fef3c7" font-size="12">--auto-remediate flag (planned, top-20)</text>
    </g>
    <g transform="translate(0,60)">
      <text x="0" y="14" fill="#f1f5f9" font-size="13">cspm-gcp-cis-benchmark</text>
      <rect x="520" y="2" width="40" height="18" rx="4" fill="#16a34a" stroke="#22c55e"/>
      <rect x="720" y="2" width="40" height="18" rx="4" fill="#b45309" stroke="#f59e0b"/>
      <text x="940" y="14" text-anchor="middle" fill="#fde68a" font-size="12">#242 #254</text>
      <text x="1140" y="14" fill="#fef3c7" font-size="12">--auto-remediate flag (planned, top-20)</text>
    </g>
    <g transform="translate(0,90)">
      <text x="0" y="14" fill="#f1f5f9" font-size="13">cspm-azure-cis-benchmark</text>
      <rect x="520" y="2" width="40" height="18" rx="4" fill="#16a34a" stroke="#22c55e"/>
      <rect x="720" y="2" width="40" height="18" rx="4" fill="#b45309" stroke="#f59e0b"/>
      <text x="940" y="14" text-anchor="middle" fill="#fde68a" font-size="12">#242 #254</text>
      <text x="1140" y="14" fill="#fef3c7" font-size="12">--auto-remediate flag (planned, top-20)</text>
    </g>
    <g transform="translate(0,120)">
      <text x="0" y="14" fill="#f1f5f9" font-size="13">k8s-security-benchmark + container/model/gpu</text>
      <rect x="520" y="2" width="40" height="18" rx="4" fill="#16a34a" stroke="#22c55e"/>
      <rect x="720" y="2" width="40" height="18" rx="4" fill="#1e3a8a" stroke="#3b82f6"/>
      <text x="940" y="14" text-anchor="middle" fill="#94a3b8" font-size="12">—</text>
      <text x="1140" y="14" fill="#dbeafe" font-size="12">posture only · remediate via k8s-rbac-revoke</text>
    </g>
  </g>

  <!-- Footer -->
  <g transform="translate(48,720)" font-family="Inter, system-ui, sans-serif">
    <text x="0" y="14" fill="#94a3b8" font-size="12">Closed-loop ratio: <tspan fill="#5eead4" font-weight="900">3 / 11 detections</tspan> · roadmap covers <tspan fill="#fbbf24" font-weight="900">5 of the 8 gaps</tspan> via #238 #241 #242 · <tspan fill="#f87171" font-weight="900">3 detections (Workspace, lateral-movement, MCP) need new remediation skills</tspan></text>
    <text x="0" y="34" fill="#64748b" font-size="11">Contract: every "shipped" remediation cell here is HITL-gated, dry-run-by-default, and dual-audited per SECURITY_BAR.md and docs/HITL_POLICY.md. Tracking: #155 (response parity).</text>
  </g>
</svg>
