<svg xmlns="http://www.w3.org/2000/svg" width="1480" height="960" viewBox="0 0 1480 960" role="img" aria-labelledby="title desc">
  <title id="title">Common shipped flows</title>
  <desc id="desc">Three high-signal shipped paths. Raw payloads flow through ingest, detect, and view. Warehouse or object rows flow through source, detect, and sink. Live cloud, SaaS, or HR state flows through discovery or evaluation, then optionally through guarded remediation. The same skill bundle contract is used from CLI, MCP, CI, and runners.</desc>

  <defs>
    <linearGradient id="bg" x1="0" y1="0" x2="1" y2="1">
      <stop offset="0%" stop-color="#08111f"/>
      <stop offset="100%" stop-color="#06111b"/>
    </linearGradient>
    <linearGradient id="cyanStroke" x1="0" y1="0" x2="1" y2="0">
      <stop offset="0%" stop-color="#22d3ee"/>
      <stop offset="100%" stop-color="#7dd3fc"/>
    </linearGradient>
    <linearGradient id="blueStroke" x1="0" y1="0" x2="1" y2="0">
      <stop offset="0%" stop-color="#60a5fa"/>
      <stop offset="100%" stop-color="#93c5fd"/>
    </linearGradient>
    <linearGradient id="tealStroke" x1="0" y1="0" x2="1" y2="0">
      <stop offset="0%" stop-color="#2dd4bf"/>
      <stop offset="100%" stop-color="#67e8f9"/>
    </linearGradient>
  </defs>

  <rect width="1480" height="960" fill="url(#bg)"/>
  <rect x="28" y="28" width="1424" height="904" rx="32" fill="#0f172a" stroke="#334155" stroke-width="2"/>

  <g font-family="Inter, Segoe UI, Arial, sans-serif">
    <text x="72" y="92" fill="#f8fafc" font-size="42" font-weight="800">Common shipped flows</text>
    <text x="72" y="128" fill="#c7d2e3" font-size="22">The repo repeats the same skill bundles in different lanes. What changes is the input, output, and control boundary.</text>

    <rect x="72" y="158" width="1336" height="60" rx="18" fill="#111c34" stroke="#475569" stroke-width="2"/>
    <text x="98" y="196" fill="#e5eefb" font-size="18" font-weight="800">Access surfaces</text>
    <text x="240" y="196" fill="#dbe4f0" font-size="18">CLI • MCP / agents • CI • AWS / GCP / Azure runners • same underlying skill contract</text>

    <text x="126" y="274" fill="#93c5fd" font-size="17" font-weight="800">START</text>
    <text x="452" y="274" fill="#93c5fd" font-size="17" font-weight="800">SKILL FLOW</text>
    <text x="1042" y="274" fill="#93c5fd" font-size="17" font-weight="800">RESULT</text>
    <text x="1284" y="274" fill="#93c5fd" font-size="17" font-weight="800">GUARDRAIL</text>

    <g transform="translate(72,294)">
      <rect x="0" y="0" width="1336" height="176" rx="26" fill="#0c2a3b" stroke="url(#cyanStroke)" stroke-width="2.5"/>
      <text x="30" y="42" fill="#f8fafc" font-size="28" font-weight="800">1. Raw log detection and export</text>
      <text x="30" y="74" fill="#d7e9f0" font-size="18">Use when the repo starts from CloudTrail, Kubernetes audit, Okta, Entra, Workspace, or other source-native payloads.</text>

      <rect x="30" y="102" width="236" height="50" rx="18" fill="#17304f" stroke="#60a5fa" stroke-width="2"/>
      <text x="62" y="134" fill="#f8fafc" font-size="18" font-weight="800">raw payloads</text>

      <rect x="322" y="102" width="172" height="50" rx="18" fill="#2955d9" stroke="#9cc2ff" stroke-width="2"/>
      <text x="376" y="134" fill="#f8fafc" font-size="18" font-weight="800">ingest-*</text>
      <rect x="546" y="102" width="172" height="50" rx="18" fill="#16877b" stroke="#7ef0df" stroke-width="2"/>
      <text x="600" y="134" fill="#f8fafc" font-size="18" font-weight="800">detect-*</text>
      <rect x="770" y="102" width="172" height="50" rx="18" fill="#8b3dff" stroke="#d0b0ff" stroke-width="2"/>
      <text x="830" y="134" fill="#f8fafc" font-size="18" font-weight="800">view/*</text>

      <path d="M266 127 L322 127" stroke="#60a5fa" stroke-width="5" fill="none"/>
      <path d="M494 127 L546 127" stroke="#8dc4ff" stroke-width="5" fill="none"/>
      <path d="M718 127 L770 127" stroke="#77e6d7" stroke-width="5" fill="none"/>

      <rect x="994" y="102" width="232" height="50" rx="18" fill="#17304f" stroke="#7dd3fc" stroke-width="2"/>
      <text x="1036" y="134" fill="#f8fafc" font-size="18" font-weight="800">SARIF / Mermaid / JSON</text>

      <rect x="1240" y="102" width="66" height="50" rx="18" fill="#13253f" stroke="#22d3ee" stroke-width="2"/>
      <text x="1261" y="134" fill="#67e8f9" font-size="18" font-weight="800">RO</text>

      <text x="30" y="168" fill="#8fd8e5" font-size="15">Example: ingest-cloudtrail-ocsf → detect-lateral-movement → convert-ocsf-to-sarif</text>
    </g>

    <g transform="translate(72,500)">
      <rect x="0" y="0" width="1336" height="176" rx="26" fill="#13253f" stroke="url(#blueStroke)" stroke-width="2.5"/>
      <text x="30" y="42" fill="#f8fafc" font-size="28" font-weight="800">2. Warehouse or object analysis with persistence</text>
      <text x="30" y="74" fill="#d7e3f0" font-size="18">Use when data already lives in Snowflake, Databricks, ClickHouse, or object storage and you want analysis near the data.</text>

      <rect x="30" y="102" width="236" height="50" rx="18" fill="#17304f" stroke="#38bdf8" stroke-width="2"/>
      <text x="66" y="134" fill="#f8fafc" font-size="18" font-weight="800">rows or objects</text>

      <rect x="322" y="102" width="172" height="50" rx="18" fill="#155e75" stroke="#7dd3fc" stroke-width="2"/>
      <text x="378" y="134" fill="#f8fafc" font-size="18" font-weight="800">source-*</text>
      <rect x="546" y="102" width="172" height="50" rx="18" fill="#16877b" stroke="#7ef0df" stroke-width="2"/>
      <text x="600" y="134" fill="#f8fafc" font-size="18" font-weight="800">detect-*</text>
      <rect x="770" y="102" width="172" height="50" rx="18" fill="#6d28d9" stroke="#c4b5fd" stroke-width="2"/>
      <text x="826" y="134" fill="#f8fafc" font-size="18" font-weight="800">sink-*</text>

      <path d="M266 127 L322 127" stroke="#60a5fa" stroke-width="5" fill="none"/>
      <path d="M494 127 L546 127" stroke="#7dd3fc" stroke-width="5" fill="none"/>
      <path d="M718 127 L770 127" stroke="#7ef0df" stroke-width="5" fill="none"/>

      <rect x="994" y="102" width="232" height="50" rx="18" fill="#17304f" stroke="#93c5fd" stroke-width="2"/>
      <text x="1048" y="134" fill="#f8fafc" font-size="18" font-weight="800">customer sink edge</text>

      <rect x="1240" y="102" width="66" height="50" rx="18" fill="#13253f" stroke="#60a5fa" stroke-width="2"/>
      <text x="1254" y="134" fill="#bfdbfe" font-size="18" font-weight="800">ROQ</text>

      <text x="30" y="168" fill="#a8c8f2" font-size="15">Example: source-snowflake-query → detect-lateral-movement → sink-snowflake-jsonl</text>
    </g>

    <g transform="translate(72,706)">
      <rect x="0" y="0" width="1336" height="176" rx="26" fill="#083344" stroke="url(#tealStroke)" stroke-width="2.5"/>
      <text x="30" y="42" fill="#f8fafc" font-size="28" font-weight="800">3. Live posture, discovery, and guarded action</text>
      <text x="30" y="74" fill="#d1efe8" font-size="18">Use when the repo starts from live cloud APIs, SaaS APIs, or HR lifecycle events instead of a raw stream.</text>

      <rect x="30" y="102" width="236" height="50" rx="18" fill="#17304f" stroke="#14b8a6" stroke-width="2"/>
      <text x="74" y="134" fill="#f8fafc" font-size="18" font-weight="800">live state</text>

      <rect x="322" y="102" width="248" height="50" rx="18" fill="#16877b" stroke="#7ef0df" stroke-width="2"/>
      <text x="354" y="134" fill="#f8fafc" font-size="18" font-weight="800">discover-* / evaluation/*</text>
      <rect x="616" y="102" width="192" height="50" rx="18" fill="#4f46e5" stroke="#a5b4fc" stroke-width="2"/>
      <text x="654" y="134" fill="#f8fafc" font-size="18" font-weight="800">native outputs</text>
      <rect x="854" y="102" width="202" height="50" rx="18" fill="#991b1b" stroke="#fca5a5" stroke-width="2"/>
      <text x="900" y="134" fill="#f8fafc" font-size="18" font-weight="800">remediation/*</text>

      <path d="M266 127 L322 127" stroke="#2dd4bf" stroke-width="5" fill="none"/>
      <path d="M570 127 L616 127" stroke="#7ef0df" stroke-width="5" fill="none"/>
      <path d="M808 127 L854 127" stroke="#a5b4fc" stroke-width="5" fill="none"/>

      <rect x="1088" y="102" width="138" height="50" rx="18" fill="#17304f" stroke="#2dd4bf" stroke-width="2"/>
      <text x="1114" y="134" fill="#f8fafc" font-size="18" font-weight="800">evidence trail</text>

      <rect x="1240" y="102" width="66" height="50" rx="18" fill="#13253f" stroke="#22d3ee" stroke-width="2"/>
      <text x="1255" y="134" fill="#99f6e4" font-size="18" font-weight="800">HITL</text>

      <text x="30" y="168" fill="#9ce9dd" font-size="15">Example: discover-control-evidence, cspm-aws-cis-benchmark, or iam-departures-remediation</text>
    </g>
  </g>
</svg>
