<svg xmlns="http://www.w3.org/2000/svg" width="1280" height="720" viewBox="0 0 1280 720" role="img" aria-labelledby="title desc">
  <title id="title">IAM departures remediation · AWS flagship workflow</title>
  <desc id="desc">Zone-based AWS IAM departures workflow. The AWS Corporate zone contains Snowflake and Databricks departure sources, the reconciler Lambda that applies rehire and grace-period filters, an S3 manifest, and the EventBridge rule that starts the pipeline. The VPC zone contains the parser Lambda that re-checks IAM state and the worker Lambda that executes cleanup. The worker assumes a scoped cross-account role guarded by aws:PrincipalOrgID to touch Target Accounts, where it revokes credentials, strips permissions, and quarantines or deletes the user. Every worker action is dual-audited to DynamoDB and KMS-encrypted S3, and ingest-back feeds the next reconciler run for a closed-loop drift check. Azure Entra and GCP IAM use separate native pipelines.</desc>

  <defs>
    <linearGradient id="bg" x1="0" y1="0" x2="1" y2="1">
      <stop offset="0%" stop-color="#07111f"/>
      <stop offset="100%" stop-color="#0d1b31"/>
    </linearGradient>
    <linearGradient id="panel" x1="0" y1="0" x2="1" y2="1">
      <stop offset="0%" stop-color="#111c33"/>
      <stop offset="100%" stop-color="#0f172a"/>
    </linearGradient>
    <linearGradient id="headline" x1="0" y1="0" x2="1" y2="0">
      <stop offset="0%" stop-color="#dbeafe"/>
      <stop offset="55%" stop-color="#bfdbfe"/>
      <stop offset="100%" stop-color="#fde68a"/>
    </linearGradient>
    <pattern id="grid" x="0" y="0" width="36" height="36" patternUnits="userSpaceOnUse">
      <path d="M36 0H0V36" fill="none" stroke="#1e293b" stroke-opacity="0.35" stroke-width="1"/>
    </pattern>
    <filter id="shadow" x="-20%" y="-20%" width="140%" height="140%">
      <feDropShadow dx="0" dy="6" stdDeviation="8" flood-color="#020617" flood-opacity="0.35"/>
    </filter>
    <marker id="arrow" viewBox="0 0 10 10" refX="9" refY="5" markerWidth="8" markerHeight="8" orient="auto">
      <path d="M0 0 L10 5 L0 10 z" fill="#94a3b8"/>
    </marker>
    <marker id="arrowWarm" viewBox="0 0 10 10" refX="9" refY="5" markerWidth="8" markerHeight="8" orient="auto">
      <path d="M0 0 L10 5 L0 10 z" fill="#f59e0b"/>
    </marker>
    <marker id="arrowLoop" viewBox="0 0 10 10" refX="9" refY="5" markerWidth="8" markerHeight="8" orient="auto">
      <path d="M0 0 L10 5 L0 10 z" fill="#ec4899"/>
    </marker>

    <symbol id="aws" viewBox="0 0 24 24"><path fill="#f59e0b" d="M6.763 10.036c0 .296.032.535.088.71.064.176.144.368.256.576.04.063.056.127.056.183 0 .08-.048.16-.152.24l-.503.335a.383.383 0 0 1-.208.072c-.08 0-.16-.04-.239-.112a2.47 2.47 0 0 1-.287-.375 6.18 6.18 0 0 1-.248-.471c-.622.734-1.405 1.101-2.347 1.101-.67 0-1.205-.191-1.596-.574-.391-.384-.59-.894-.59-1.533 0-.678.239-1.23.726-1.644.487-.415 1.133-.623 1.955-.623.272 0 .551.024.846.064.296.04.6.104.918.176v-.583c0-.607-.127-1.03-.375-1.277-.255-.248-.686-.367-1.3-.367-.28 0-.568.031-.863.103-.295.072-.583.16-.862.272a2.287 2.287 0 0 1-.28.104.488.488 0 0 1-.127.023c-.112 0-.168-.08-.168-.247v-.391c0-.128.016-.224.056-.28a.597.597 0 0 1 .224-.167c.279-.144.614-.264 1.005-.36a4.84 4.84 0 0 1 1.246-.151c.95 0 1.644.216 2.091.647.439.43.662 1.085.662 1.963v2.586zm-3.24 1.214c.263 0 .534-.048.822-.144.287-.096.543-.271.758-.51.128-.152.224-.32.272-.512.047-.191.08-.423.08-.694v-.335a6.66 6.66 0 0 0-.735-.136 6.02 6.02 0 0 0-.75-.048c-.535 0-.926.104-1.19.32-.263.215-.39.518-.39.917 0 .375.095.655.295.846.191.2.47.296.838.296zM21.698 16.207c-2.626 1.94-6.442 2.969-9.722 2.969-4.598 0-8.74-1.7-11.87-4.526-.247-.223-.024-.527.272-.351 3.384 1.963 7.559 3.153 11.877 3.153 2.914 0 6.114-.607 9.06-1.852.439-.2.814.287.383.607zM22.792 14.961c-.336-.43-2.22-.207-3.074-.103-.255.032-.295-.192-.063-.36 1.5-1.053 3.967-.75 4.254-.399.287.36-.08 2.826-1.485 4.007-.215.184-.423.088-.327-.151.32-.79 1.03-2.57.695-2.994z"/></symbol>
    <symbol id="lambda" viewBox="0 0 24 24"><path fill="#fbbf24" d="M4.9855 0c-.2941.0031-.5335.2466-.534.5482L4.446 5.456c0 .1451.06.2835.159.3891a.5322.5322 0 0 0 .3806.1562h3.4282l8.197 17.6805a.5365.5365 0 0 0 .4885.3181h5.811c.2969 0 .5426-.2448.5426-.5482V18.544c0-.3035-.2392-.5482-.5425-.5482h-2.0138L12.7394.3153C12.647.124 12.4564 0 12.2452 0h-7.254Zm.5397 1.0907h6.3678l8.16 17.6804a.5365.5365 0 0 0 .4885.3181h1.8178v3.8173H17.437L9.2402 5.226a.536.536 0 0 0-.4885-.318H5.5223Zm2.0137 8.2366c-.2098.0011-.3937.1193-.4857.3096L.6002 23.2133a.5506.5506 0 0 0 .0313.5282.5334.5334 0 0 0 .4544.25h6.169a.5468.5468 0 0 0 .497-.3096l3.38-7.166a.5405.5405 0 0 0-.0029-.4686L8.036 9.637a.5468.5468 0 0 0-.4942-.3096Zm.0057 1.8036 2.488 5.1522-3.1214 6.6206H1.9465Z"/></symbol>
    <symbol id="s3" viewBox="0 0 24 24"><path fill="#34d399" d="M20.913 13.147l.12-.895c.947.576 1.258.922 1.354 1.071-.16.031-.562.046-1.474-.176zm-2.174 7.988a.547.547 0 0 0-.005.073c0 .084-.207.405-1.124.768a10.28 10.28 0 0 1-1.438.432c-1.405.325-3.128.504-4.853.504-4.612 0-7.412-1.184-7.412-1.704a.547.547 0 0 0-.005-.073L1.81 5.602c.135.078.28.154.432.227.042.02.086.038.128.057.134.062.272.122.417.18l.179.069c.154.058.314.114.478.168.043.013.084.029.13.043.207.065.423.127.646.187l.176.044c.175.044.353.087.534.127a23.414 23.414 0 0 0 .843.17l.121.023c.252.045.508.085.768.122.071.011.144.02.216.03.2.027.4.053.604.077l.24.027c.245.026.49.05.74.07l.081.009c.275.022.552.04.83.056l.233.012c.21.01.422.018.633.025a33.088 33.088 0 0 0 2.795-.026l.232-.011c.278-.016.555-.034.83-.056l.08-.008c.25-.02.497-.045.742-.072l.238-.026c.205-.024.408-.05.609-.077.07-.01.141-.019.211-.03.261-.037.519-.078.772-.122l.111-.02c.215-.04.427-.082.634-.125l.212-.047c.186-.041.368-.085.546-.13l.166-.042c.225-.06.444-.122.654-.189.04-.012.077-.026.115-.038a10.6 10.6 0 0 0 .493-.173c.058-.021.114-.044.17-.066.15-.06.293-.12.43-.185.038-.017.079-.034.116-.052.153-.073.3-.15.436-.228l-.976 7.245c-2.488-.78-5.805-2.292-7.311-3a1.09 1.09 0 0 0-1.088-1.085c-.6 0-1.088.489-1.088 1.088 0 .6.488 1.089 1.088 1.089.196 0 .378-.056.537-.148 1.72.812 5.144 2.367 7.715 3.15zm-7.42-20.047c5.677 0 9.676 1.759 9.75 2.736l-.014.113c-.01.033-.031.067-.048.101-.015.028-.026.057-.047.087-.024.033-.058.068-.09.102-.028.03-.051.06-.084.09-.038.035-.087.07-.133.105-.04.03-.074.06-.119.091-.053.036-.116.071-.177.107-.05.03-.095.06-.15.09-.068.036-.147.073-.222.11-.059.028-.114.057-.177.085-.084.038-.177.074-.268.111-.068.027-.13.054-.203.082-.097.036-.205.072-.31.107-.075.026-.148.053-.228.079-.111.035-.233.069-.35.103-.085.024-.165.05-.253.073-.124.034-.258.065-.389.098-.093.022-.181.046-.278.068-.139.032-.287.061-.433.091-.098.02-.191.041-.293.06-.155.03-.32.057-.482.084-.1.018-.198.036-.302.052-.166.026-.342.048-.515.072-.11.014-.213.03-.325.044-.181.023-.372.041-.56.06-.11.012-.218.025-.332.036-.188.016-.386.029-.58.043-.122.009-.24.02-.364.028-.207.012-.422.02-.635.028-.12.005-.234.012-.354.016a35.605 35.605 0 0 1-2.069 0c-.12-.004-.234-.011-.352-.016-.214-.008-.43-.016-.637-.028-.122-.008-.238-.02-.36-.027-.195-.015-.394-.028-.584-.044-.11-.01-.215-.024-.324-.035-.19-.02-.384-.038-.568-.06l-.315-.044c-.176-.024-.355-.046-.525-.073-.1-.015-.192-.033-.29-.05-.167-.028-.335-.055-.494-.086-.096-.018-.183-.038-.276-.056-.151-.032-.305-.062-.45-.095-.09-.02-.173-.043-.26-.064-.138-.034-.277-.067-.407-.102-.082-.022-.157-.046-.235-.069a11.75 11.75 0 0 1-.368-.108c-.075-.024-.141-.049-.213-.073-.11-.037-.223-.075-.325-.113-.067-.025-.125-.051-.188-.077-.096-.038-.195-.076-.282-.115-.06-.027-.11-.054-.166-.08-.08-.039-.162-.077-.233-.116-.052-.028-.094-.055-.142-.084-.063-.038-.13-.075-.185-.113-.043-.029-.075-.058-.113-.086-.048-.037-.098-.073-.139-.11-.032-.029-.054-.057-.08-.087-.033-.035-.069-.07-.093-.104-.02-.03-.031-.058-.046-.086-.018-.035-.039-.068-.049-.102l-.015-.113c.076-.977 4.074-2.736 9.748-2.736zm12.182 12.124c-.118-.628-.84-1.291-2.31-2.128l.963-7.16a.531.531 0 0 0 .005-.073C22.16 1.581 16.447 0 11.32 0 6.194 0 .482 1.581.482 3.851a.58.58 0 0 0 .005.072L2.819 21.25c.071 2.002 5.236 2.75 8.5 2.75 1.805 0 3.615-.188 5.098-.531.598-.138 1.133-.3 1.592-.48 1.18-.467 1.789-1.053 1.813-1.739l.945-7.018c.557.131 1.016.197 1.389.197.54 0 .902-.137 1.134-.413a.956.956 0 0 0 .21-.804Z"/></symbol>
    <symbol id="dynamo" viewBox="0 0 24 24"><path fill="#60a5fa" d="M16.606 20.705v-2.371c-1.263 1.082-3.884 1.795-7.066 1.795-3.184 0-5.805-.714-7.068-1.797v2.369c0 1.168 2.903 2.47 7.068 2.47 4.16 0 7.06-1.3 7.066-2.466zm.001-6.765l.817-.005v.005c0 .517-.258.998-.75 1.441.601.54.75 1.071.75 1.449a1661.7 1661.7 0 0 0 0 3.87c0 1.881-3.389 3.3-7.884 3.3-4.471 0-7.846-1.404-7.88-3.27a583.119 583.119 0 0 1-.003-3.909c.001-.375.15-.9.745-1.437-.592-.538-.743-1.062-.746-1.435v-3.892c.002-.377.153-.903.747-1.438-.593-.54-.744-1.062-.747-1.435 0-1.357-.002-2.735.002-3.897C1.674 1.412 5.056 0 9.54 0c2.159 0 4.233.356 5.689.974l-.315.766c-1.36-.58-3.319-.91-5.374-.91-4.165 0-7.067 1.3-7.067 2.47 0 1.168 2.902 2.47 7.067 2.47.115 0 .222 0 .334-.005l.033.828c-.122.006-.245.006-.367.006-3.184 0-5.805-.714-7.068-1.798v2.38c.005.45.45.843.821 1.093 1.116.736 3.114 1.239 5.34 1.342l-.037.829c-2.254-.105-4.23-.59-5.5-1.332-.318.245-.623.573-.623.952 0 1.168 2.902 2.47 7.067 2.47.411 0 .812-.014 1.203-.042l.06.826c-.41.03-.833.045-1.263.045-3.184 0-5.805-.713-7.068-1.797v2.368c.005.462.449.855.821 1.104 1.275.842 3.67 1.366 6.247 1.366h.182v.83H9.54c-2.62 0-4.99-.507-6.444-1.359-.317.245-.623.574-.623.954 0 1.168 2.902 2.47 7.067 2.47 4.159 0 7.058-1.298 7.066-2.465v-.007c0-.377-.303-.705-.62-.948a5.732 5.732 0 0 1-.662.336l-.316-.764c.3-.128.56-.266.776-.412.376-.254.823-.651.823-1.1zm4.377-6.915h-2.717a.406.406 0 0 1-.332-.173.42.42 0 0 1-.055-.375l1.204-3.597h-5.403l-2.583 4.974h2.623c.128 0 .248.06.325.164a.418.418 0 0 1 .069.36l-2.249 8.365zm1.249-.128l-10.89 11.608a.408.408 0 0 1-.498.075.418.418 0 0 1-.192-.471l2.534-9.426h-2.766a.407.407 0 0 1-.349-.2.418.418 0 0 1-.012-.407l3.014-5.804a.408.408 0 0 1 .36-.222h6.22c.132 0 .256.065.332.174a.422.422 0 0 1 .055.374l-1.204 3.598h3.1c.164 0 .31.099.375.251a.422.422 0 0 1-.08.45zM3.085 20.723a8.107 8.107 0 0 0 1.72.72l.233-.794a7.32 7.32 0 0 1-1.546-.645zm1.72-5.984l.233-.795a7.262 7.262 0 0 1-1.546-.646l-.407.72a8.051 8.051 0 0 0 1.72.72zm-1.72-7.427l.407-.719c.418.244.939.462 1.546.646l-.232.794a8.046 8.046 0 0 1-1.72-.72Z"/></symbol>
    <symbol id="snowflake" viewBox="0 0 24 24"><path fill="#7dd3fc" d="M7.602 12.4c.038-.151.076-.304.076-.456 0-.114-.038-.228-.038-.342-.114-.343-.304-.647-.646-.838l-4.87-2.777c-.685-.38-1.56-.152-1.94.533-.381.685-.153 1.56.532 1.94l2.701 1.56-2.701 1.56c-.685.38-.913 1.256-.533 1.94.38.685 1.256.914 1.94.533l4.832-2.777c.343-.267.571-.533.647-.876zm1.332 2.626c-.266-.038-.57.038-.837.19l-4.832 2.777c-.685.38-.913 1.256-.532 1.94.38.686 1.255.914 1.94.533l2.701-1.56v3.12c0 .8.647 1.408 1.446 1.408.799 0 1.407-.647 1.407-1.408v-5.592c0-.761-.57-1.37-1.293-1.408zm4.946-6.088c.266.038.57-.038.837-.19l4.832-2.777c.685-.38.913-1.256.532-1.94-.38-.686-1.255-.914-1.94-.533l-2.701 1.56V1.975c0-.799-.647-1.408-1.446-1.408-.799 0-1.446.609-1.446 1.408V7.53c0 .76.609 1.37 1.332 1.407zM3.265 5.97l4.832 2.777c.266.152.533.19.837.19.723-.038 1.331-.684 1.331-1.407V1.975c0-.799-.646-1.408-1.407-1.408-.799 0-1.446.647-1.446 1.408v3.12l-2.701-1.56c-.685-.38-1.56-.152-1.94.533-.419.646-.19 1.521.494 1.902zm18.22 8.184l-2.701 1.56 2.7 1.56c.686.38.914 1.256.533 1.94-.38.685-1.255.913-1.94.533l-4.832-2.778a1.644 1.644 0 01-.647-.798c-.037-.153-.076-.305-.076-.457 0-.114.039-.228.039-.342.114-.343.342-.647.646-.837l4.832-2.778c.685-.38 1.56-.152 1.94.533.457.609.19 1.484-.494 1.864z"/></symbol>
    <symbol id="databricks" viewBox="0 0 24 24"><path fill="#f97316" d="M.95 14.184L12 20.403l9.919-5.55v2.21L12 22.662l-10.484-5.96-.565.308v.77L12 24l11.05-6.218v-4.317l-.515-.309L12 19.118l-9.867-5.653v-2.21L12 16.805l11.05-6.218V6.32l-.515-.308L12 11.974 2.647 6.681 12 1.388l7.76 4.368.668-.411v-.566L12 0 .95 6.27v.72L12 13.207l9.919-5.55v2.26L12 15.52 1.516 9.56l-.565.308Z"/></symbol>
    <symbol id="eventbridge" viewBox="0 0 24 24">
      <circle cx="12" cy="12" r="3.4" fill="#f472b6"/>
      <circle cx="3.6" cy="12" r="1.8" fill="#f472b6"/>
      <circle cx="20.4" cy="12" r="1.8" fill="#f472b6"/>
      <circle cx="12" cy="3.6" r="1.8" fill="#f472b6"/>
      <circle cx="12" cy="20.4" r="1.8" fill="#f472b6"/>
      <line x1="5.4" y1="12" x2="8.6" y2="12" stroke="#f472b6" stroke-width="1.6"/>
      <line x1="15.4" y1="12" x2="18.6" y2="12" stroke="#f472b6" stroke-width="1.6"/>
      <line x1="12" y1="5.4" x2="12" y2="8.6" stroke="#f472b6" stroke-width="1.6"/>
      <line x1="12" y1="15.4" x2="12" y2="18.6" stroke="#f472b6" stroke-width="1.6"/>
    </symbol>
  </defs>

  <rect width="1280" height="720" fill="url(#bg)"/>
  <rect width="1280" height="720" fill="url(#grid)"/>

  <g font-family="Segoe UI, ui-sans-serif, Arial, sans-serif">
    <g transform="translate(46,42)">
      <rect x="0" y="0" width="214" height="32" rx="16" fill="#221306" stroke="#f59e0b"/>
      <use href="#aws" x="12" y="7" width="18" height="18"/>
      <text x="38" y="21" fill="#fbbf24" font-size="12" font-weight="800" letter-spacing="1.4">AWS FLAGSHIP WORKFLOW</text>
    </g>
    <text x="46" y="116" fill="url(#headline)" font-size="34" font-weight="900" letter-spacing="-0.6">IAM departures remediation</text>
    <text x="46" y="142" fill="#94a3b8" font-size="14">Snowflake or Databricks in. Guarded AWS workflow. Scoped cross-account write. Dual-audited. Closed loop.</text>

    <g stroke="#f59e0b" stroke-width="1.6" stroke-dasharray="8 6" fill="none">
      <rect x="46" y="176" width="620" height="286" rx="16"/>
    </g>
    <text x="64" y="200" fill="#fbbf24" font-size="13" font-weight="800" letter-spacing="1">AWS · CORPORATE</text>

    <g stroke="#34d399" stroke-width="1.6" stroke-dasharray="8 6" fill="none">
      <rect x="692" y="176" width="340" height="286" rx="16"/>
    </g>
    <text x="710" y="200" fill="#6ee7b7" font-size="13" font-weight="800" letter-spacing="1">VPC</text>

    <g stroke="#f87171" stroke-width="1.6" stroke-dasharray="8 6" fill="none">
      <rect x="1058" y="176" width="182" height="286" rx="16"/>
    </g>
    <text x="1076" y="200" fill="#fca5a5" font-size="13" font-weight="800" letter-spacing="1">TARGET ACCOUNTS</text>

    <g filter="url(#shadow)">
      <rect x="70" y="224" width="138" height="92" rx="14" fill="url(#panel)" stroke="#7dd3fc" stroke-width="1.4"/>
      <use href="#snowflake" x="82" y="240" width="26" height="26"/>
      <text x="116" y="260" fill="#e0f2fe" font-size="14" font-weight="800">Snowflake</text>
      <text x="82" y="286" fill="#94a3b8" font-size="11">IAM + departed</text>
      <text x="82" y="302" fill="#94a3b8" font-size="11">employee rows</text>
    </g>

    <g filter="url(#shadow)">
      <rect x="70" y="326" width="138" height="66" rx="14" fill="url(#panel)" stroke="#fb923c" stroke-width="1.4"/>
      <use href="#databricks" x="82" y="340" width="24" height="24"/>
      <text x="114" y="359" fill="#ffedd5" font-size="14" font-weight="800">Databricks</text>
      <text x="82" y="381" fill="#94a3b8" font-size="11">same contract</text>
    </g>

    <g filter="url(#shadow)">
      <rect x="246" y="236" width="170" height="168" rx="14" fill="url(#panel)" stroke="#60a5fa" stroke-width="1.6"/>
      <use href="#lambda" x="262" y="252" width="22" height="22"/>
      <text x="294" y="269" fill="#dbeafe" font-size="15" font-weight="800">Reconciler</text>
      <text x="262" y="294" fill="#94a3b8" font-size="11">scope before write</text>

      <rect x="262" y="304" width="140" height="22" rx="11" fill="#10233d" stroke="#3b82f6"/>
      <text x="332" y="319" text-anchor="middle" fill="#bfdbfe" font-size="11" font-weight="700">rehire filter</text>
      <rect x="262" y="332" width="140" height="22" rx="11" fill="#10233d" stroke="#3b82f6"/>
      <text x="332" y="347" text-anchor="middle" fill="#bfdbfe" font-size="11" font-weight="700">grace window</text>
      <rect x="262" y="360" width="140" height="22" rx="11" fill="#10233d" stroke="#3b82f6"/>
      <text x="332" y="375" text-anchor="middle" fill="#bfdbfe" font-size="11" font-weight="700">change diff</text>
    </g>

    <g filter="url(#shadow)">
      <rect x="450" y="258" width="90" height="124" rx="14" fill="url(#panel)" stroke="#34d399" stroke-width="1.4"/>
      <use href="#s3" x="482" y="274" width="26" height="26"/>
      <text x="495" y="322" text-anchor="middle" fill="#d1fae5" font-size="13" font-weight="800">S3</text>
      <text x="495" y="338" text-anchor="middle" fill="#94a3b8" font-size="11">manifest</text>
      <text x="495" y="355" text-anchor="middle" fill="#94a3b8" font-size="11">KMS</text>
      <text x="495" y="372" text-anchor="middle" fill="#94a3b8" font-size="11">encrypted</text>
    </g>

    <g filter="url(#shadow)">
      <rect x="574" y="258" width="78" height="124" rx="14" fill="url(#panel)" stroke="#f472b6" stroke-width="1.4"/>
      <use href="#eventbridge" x="595" y="272" width="34" height="34"/>
      <text x="613" y="332" text-anchor="middle" fill="#fbcfe8" font-size="13" font-weight="800">Event</text>
      <text x="613" y="348" text-anchor="middle" fill="#fbcfe8" font-size="13" font-weight="800">Bridge</text>
      <text x="613" y="370" text-anchor="middle" fill="#94a3b8" font-size="11">rule</text>
    </g>

    <g filter="url(#shadow)">
      <rect x="712" y="236" width="136" height="168" rx="14" fill="url(#panel)" stroke="#fbbf24" stroke-width="1.6"/>
      <use href="#lambda" x="728" y="252" width="22" height="22"/>
      <text x="758" y="269" fill="#fef3c7" font-size="15" font-weight="800">Parser</text>
      <text x="728" y="296" fill="#94a3b8" font-size="11">Lambda</text>
      <text x="728" y="318" fill="#cbd5e1" font-size="11">re-checks manifest</text>
      <text x="728" y="334" fill="#cbd5e1" font-size="11">+ live IAM state</text>
      <rect x="728" y="350" width="104" height="22" rx="11" fill="#241607" stroke="#f59e0b"/>
      <text x="780" y="365" text-anchor="middle" fill="#fde68a" font-size="11" font-weight="700">parser role</text>
      <text x="728" y="389" fill="#94a3b8" font-size="10">reads S3 manifest</text>
    </g>

    <g filter="url(#shadow)">
      <rect x="876" y="236" width="136" height="168" rx="14" fill="url(#panel)" stroke="#fbbf24" stroke-width="1.6"/>
      <use href="#lambda" x="892" y="252" width="22" height="22"/>
      <text x="922" y="269" fill="#fef3c7" font-size="15" font-weight="800">Worker</text>
      <text x="892" y="296" fill="#94a3b8" font-size="11">Lambda</text>
      <text x="892" y="318" fill="#cbd5e1" font-size="11">per-user cleanup</text>
      <text x="892" y="334" fill="#cbd5e1" font-size="11">dry-run first</text>
      <rect x="892" y="350" width="104" height="22" rx="11" fill="#241607" stroke="#f59e0b"/>
      <text x="944" y="365" text-anchor="middle" fill="#fde68a" font-size="11" font-weight="700">worker role</text>
      <text x="892" y="389" fill="#94a3b8" font-size="10">AssumeRole + OrgID</text>
    </g>

    <g>
      <rect x="1076" y="224" width="148" height="224" rx="14" fill="url(#panel)" stroke="#f87171" stroke-width="1.4"/>
      <use href="#aws" x="1090" y="240" width="22" height="22"/>
      <text x="1120" y="257" fill="#fecaca" font-size="14" font-weight="800">Cross-account</text>
      <text x="1094" y="282" fill="#94a3b8" font-size="11">scoped IAM writes</text>

      <text x="1094" y="312" fill="#fee2e2" font-size="12" font-weight="800">1. Revoke credentials</text>
      <text x="1094" y="334" fill="#fee2e2" font-size="12" font-weight="800">2. Strip permissions</text>
      <text x="1094" y="356" fill="#fee2e2" font-size="12" font-weight="800">3. Quarantine + delete</text>

      <rect x="1094" y="378" width="112" height="22" rx="11" fill="#2a1414" stroke="#f87171"/>
      <text x="1150" y="393" text-anchor="middle" fill="#fecaca" font-size="11" font-weight="700">deny: root / BG</text>
      <rect x="1094" y="408" width="112" height="22" rx="11" fill="#2a1414" stroke="#f87171"/>
      <text x="1150" y="423" text-anchor="middle" fill="#fecaca" font-size="11" font-weight="700">11 steps · 13 APIs</text>
    </g>

    <path d="M208,352 C224,352 230,280 246,280" fill="none" stroke="#94a3b8" stroke-width="2.2" marker-end="url(#arrow)"/>
    <path d="M208,270 L246,270" fill="none" stroke="#94a3b8" stroke-width="2.2" marker-end="url(#arrow)"/>
    <path d="M416,320 L450,320" fill="none" stroke="#94a3b8" stroke-width="2.2" marker-end="url(#arrow)"/>
    <path d="M540,320 L574,320" fill="none" stroke="#94a3b8" stroke-width="2.2" marker-end="url(#arrow)"/>
    <path d="M652,320 L712,320" fill="none" stroke="#94a3b8" stroke-width="2.2" marker-end="url(#arrow)"/>
    <path d="M848,320 L876,320" fill="none" stroke="#94a3b8" stroke-width="2.2" marker-end="url(#arrow)"/>
    <path d="M1012,320 L1076,320" fill="none" stroke="#f59e0b" stroke-width="2.6" marker-end="url(#arrowWarm)"/>

    <g filter="url(#shadow)">
      <rect x="46" y="492" width="986" height="138" rx="18" fill="#0f1b33" stroke="#2dd4bf" stroke-width="1.6"/>
      <text x="68" y="524" fill="#ccfbf1" font-size="20" font-weight="800">Dual audit · closed loop</text>
      <text x="68" y="546" fill="#94a3b8" font-size="13">Every worker action writes to both stores. Ingest-back feeds the next reconciler run.</text>

      <rect x="68" y="560" width="230" height="50" rx="12" fill="#0b1b2e" stroke="#60a5fa"/>
      <use href="#dynamo" x="84" y="572" width="24" height="24"/>
      <text x="118" y="587" fill="#dbeafe" font-size="13" font-weight="800">DynamoDB audit</text>
      <text x="118" y="603" fill="#94a3b8" font-size="11">(user, ts) lookup trail</text>

      <rect x="318" y="560" width="230" height="50" rx="12" fill="#0c2c23" stroke="#34d399"/>
      <use href="#s3" x="334" y="572" width="24" height="24"/>
      <text x="368" y="587" fill="#d1fae5" font-size="13" font-weight="800">S3 evidence · KMS</text>
      <text x="368" y="603" fill="#94a3b8" font-size="11">immutable retention</text>

      <rect x="568" y="560" width="222" height="50" rx="12" fill="#10233d" stroke="#2dd4bf"/>
      <text x="679" y="587" text-anchor="middle" fill="#ccfbf1" font-size="13" font-weight="800">ingest-back</text>
      <text x="679" y="603" text-anchor="middle" fill="#94a3b8" font-size="11">next run verifies closure</text>

      <rect x="810" y="560" width="202" height="50" rx="12" fill="#2a1414" stroke="#f87171"/>
      <text x="911" y="587" text-anchor="middle" fill="#fecaca" font-size="13" font-weight="800">Failure lane</text>
      <text x="911" y="603" text-anchor="middle" fill="#fca5a5" font-size="11">DLQ + SNS on SFN failure</text>
    </g>

    <path d="M679,560 C679,470 520,454 332,454 L332,404" fill="none" stroke="#ec4899" stroke-width="2.2" stroke-dasharray="6 5" marker-end="url(#arrowLoop)"/>
    <text x="498" y="448" fill="#f9a8d4" font-size="12" font-weight="800">closed-loop drift check</text>

    <g>
      <rect x="1058" y="492" width="182" height="138" rx="18" fill="#101827" stroke="#334155"/>
      <text x="1076" y="520" fill="#e2e8f0" font-size="13" font-weight="800">One cloud per worker</text>
      <text x="1076" y="540" fill="#94a3b8" font-size="11">AWS-only on purpose.</text>
      <text x="1076" y="557" fill="#94a3b8" font-size="11">Azure Entra + GCP IAM</text>
      <text x="1076" y="574" fill="#94a3b8" font-size="11">use separate native</text>
      <text x="1076" y="591" fill="#94a3b8" font-size="11">pipelines. No worker</text>
      <text x="1076" y="608" fill="#94a3b8" font-size="11">crosses cloud boundaries.</text>
    </g>

    <g font-size="11" font-weight="700" fill="#94a3b8">
      <text x="224" y="264">sources</text>
      <text x="420" y="312">publish</text>
      <text x="543" y="312">trigger</text>
      <text x="664" y="312">start</text>
      <text x="854" y="312">invoke</text>
      <text x="1018" y="312">guarded write</text>
    </g>

    <g font-size="11" fill="#64748b">
      <text x="46" y="674">Separate IAM roles: EventBridge → Step Function → parser → worker → cross-account target.</text>
      <text x="46" y="692">Dry-run first. Human-required approval. Deny-list for root, break-glass, emergency users.</text>
    </g>
  </g>
</svg>
