<svg xmlns="http://www.w3.org/2000/svg" width="1480" height="1120" viewBox="0 0 1480 1120" role="img" aria-labelledby="title desc">
  <title id="title">cloud-ai-security-skills skill map</title>
  <desc id="desc">Every shipped skill in the repo grouped by layer. Layer 1 Ingest has 15 source-specific normalizers across AWS, GCP, Azure, Kubernetes, Okta, Entra, Google Workspace, and MCP. Layer 2 Discover has 4 inventory, AI BOM, and evidence skills. Layer 3 Detect has 9 deterministic detectors tied to MITRE ATT&amp;CK. Layer 4 Evaluate has 7 benchmarks across cloud, Kubernetes, containers, model serving, and GPU clusters. Layer 5 Remediate has the IAM departures flagship. Layer 6 View has SARIF and Mermaid exporters. Edge adapters for warehouse sources and sinks wrap the same contract.</desc>

  <defs>
    <linearGradient id="bg" x1="0" y1="0" x2="1" y2="1">
      <stop offset="0%" stop-color="#08111f"/>
      <stop offset="100%" stop-color="#06101a"/>
    </linearGradient>
    <linearGradient id="hero" x1="0" y1="0" x2="1" y2="1">
      <stop offset="0%" stop-color="#0f172a"/>
      <stop offset="100%" stop-color="#111f37"/>
    </linearGradient>
    <linearGradient id="ingestStroke" x1="0" y1="0" x2="1" y2="0">
      <stop offset="0%" stop-color="#3b82f6"/>
      <stop offset="100%" stop-color="#60a5fa"/>
    </linearGradient>
    <linearGradient id="discoverStroke" x1="0" y1="0" x2="1" y2="0">
      <stop offset="0%" stop-color="#22d3ee"/>
      <stop offset="100%" stop-color="#67e8f9"/>
    </linearGradient>
    <linearGradient id="detectStroke" x1="0" y1="0" x2="1" y2="0">
      <stop offset="0%" stop-color="#14b8a6"/>
      <stop offset="100%" stop-color="#5eead4"/>
    </linearGradient>
    <linearGradient id="evaluateStroke" x1="0" y1="0" x2="1" y2="0">
      <stop offset="0%" stop-color="#a78bfa"/>
      <stop offset="100%" stop-color="#c4b5fd"/>
    </linearGradient>
    <linearGradient id="remediateStroke" x1="0" y1="0" x2="1" y2="0">
      <stop offset="0%" stop-color="#f97316"/>
      <stop offset="100%" stop-color="#fdba74"/>
    </linearGradient>
    <linearGradient id="viewStroke" x1="0" y1="0" x2="1" y2="0">
      <stop offset="0%" stop-color="#e879f9"/>
      <stop offset="100%" stop-color="#f0abfc"/>
    </linearGradient>

    <symbol id="aws" viewBox="0 0 24 24">
      <path fill="#f59e0b" d="M6.763 10.036c0 .296.032.535.088.71.064.176.144.368.256.576.04.063.056.127.056.183 0 .08-.048.16-.152.24l-.503.335a.383.383 0 0 1-.208.072c-.08 0-.16-.04-.239-.112a2.47 2.47 0 0 1-.287-.375 6.18 6.18 0 0 1-.248-.471c-.622.734-1.405 1.101-2.347 1.101-.67 0-1.205-.191-1.596-.574-.391-.384-.59-.894-.59-1.533 0-.678.239-1.23.726-1.644.487-.415 1.133-.623 1.955-.623.272 0 .551.024.846.064.296.04.6.104.918.176v-.583c0-.607-.127-1.03-.375-1.277-.255-.248-.686-.367-1.3-.367-.28 0-.568.031-.863.103-.295.072-.583.16-.862.272a2.287 2.287 0 0 1-.28.104.488.488 0 0 1-.127.023c-.112 0-.168-.08-.168-.247v-.391c0-.128.016-.224.056-.28a.597.597 0 0 1 .224-.167c.279-.144.614-.264 1.005-.36a4.84 4.84 0 0 1 1.246-.151c.95 0 1.644.216 2.091.647.439.43.662 1.085.662 1.963v2.586z"/>
    </symbol>
    <symbol id="gcp" viewBox="0 0 24 24">
      <path fill="#60a5fa" d="M12.19 2.38a9.344 9.344 0 0 0-9.234 6.893c.053-.02-.055.013 0 0-3.875 2.551-3.922 8.11-.247 10.941l.006-.007-.007.03a6.717 6.717 0 0 0 4.077 1.356h5.173l.03.03h5.192c6.687.053 9.376-8.605 3.835-12.35a9.365 9.365 0 0 0-2.821-4.552l-.043.043.006-.05A9.344 9.344 0 0 0 12.19 2.38z"/>
    </symbol>
    <symbol id="azure" viewBox="0 0 24 24">
      <path fill="#38bdf8" d="M22.379 23.343a1.62 1.62 0 0 0 1.536-2.14v.002L17.35 1.76A1.62 1.62 0 0 0 15.816.657H8.184A1.62 1.62 0 0 0 6.65 1.76L.086 21.204a1.62 1.62 0 0 0 1.536 2.139h4.741a1.62 1.62 0 0 0 1.535-1.103l.977-2.892 4.947 3.675c.28.208.618.32.966.32"/>
    </symbol>
    <symbol id="okta" viewBox="0 0 24 24">
      <path fill="#3b82f6" d="M12 0C5.389 0 0 5.35 0 12s5.35 12 12 12 12-5.35 12-12S18.611 0 12 0zm0 18c-3.325 0-6-2.675-6-6s2.675-6 6-6 6 2.675 6 6-2.675 6-6 6z"/>
    </symbol>
    <symbol id="entra" viewBox="0 0 24 24">
      <path fill="#60a5fa" d="M0 0v11.408h11.408V0zm12.594 0v11.408H24V0zM0 12.594V24h11.408V12.594zm12.594 0V24H24V12.594z"/>
    </symbol>
    <!-- Real Simple Icons paths (CC0) from docs/images/vendor-icons/ kept below.
         Microsoft and Google marks stand in for Entra and Workspace (documented in vendor-icons/README.md).
         MCP has no public brand mark yet and is rendered as a text pill. -->
    <symbol id="k8s" viewBox="0 0 24 24"><path fill="#93c5fd" d="M10.204 14.35l.007.01-.999 2.413a5.171 5.171 0 0 1-2.075-2.597l2.578-.437.004.005a.44.44 0 0 1 .484.606zm-.833-2.129a.44.44 0 0 0 .173-.756l.002-.011L7.585 9.7a5.143 5.143 0 0 0-.73 3.255l2.514-.725.002-.009zm1.145-1.98a.44.44 0 0 0 .699-.337l.01-.005.15-2.62a5.144 5.144 0 0 0-3.01 1.442l2.147 1.523.004-.002zm.76 2.75l.723.349.722-.347.18-.78-.5-.623h-.804l-.5.623.179.779zm1.5-3.095a.44.44 0 0 0 .7.336l.008.003 2.134-1.513a5.188 5.188 0 0 0-2.992-1.442l.148 2.615.002.001zm10.876 5.97l-5.773 7.181a1.6 1.6 0 0 1-1.248.594l-9.261.003a1.6 1.6 0 0 1-1.247-.596l-5.776-7.18a1.583 1.583 0 0 1-.307-1.34L2.1 5.573c.108-.47.425-.864.863-1.073L11.305.513a1.606 1.606 0 0 1 1.385 0l8.345 3.985c.438.209.755.604.863 1.073l2.062 8.955c.108.47-.005.963-.308 1.34zm-3.289-2.057c-.042-.01-.103-.026-.145-.034-.174-.033-.315-.025-.479-.038-.35-.037-.638-.067-.895-.148-.105-.04-.18-.165-.216-.216l-.201-.059a6.45 6.45 0 0 0-.105-2.332 6.465 6.465 0 0 0-.936-2.163c.052-.047.15-.133.177-.159.008-.09.001-.183.094-.282.197-.185.444-.338.743-.522.142-.084.273-.137.415-.242.032-.024.076-.062.11-.089.24-.191.295-.52.123-.736-.172-.216-.506-.236-.745-.045-.034.027-.08.062-.111.088-.134.116-.217.23-.33.35-.246.25-.45.458-.673.609-.097.056-.239.037-.303.033l-.19.135a6.545 6.545 0 0 0-4.146-2.003l-.012-.223c-.065-.062-.143-.115-.163-.25-.022-.268.015-.557.057-.905.023-.163.061-.298.068-.475.001-.04-.001-.099-.001-.142 0-.306-.224-.555-.5-.555-.275 0-.499.249-.499.555l.001.014c0 .041-.002.092 0 .128.006.177.044.312.067.475.042.348.078.637.056.906a.545.545 0 0 1-.162.258l-.012.211a6.424 6.424 0 0 0-4.166 2.003 8.373 8.373 0 0 1-.18-.128c-.09.012-.18.04-.297-.029-.223-.15-.427-.358-.673-.608-.113-.12-.195-.234-.329-.349-.03-.026-.077-.062-.111-.088a.594.594 0 0 0-.348-.132.481.481 0 0 0-.398.176c-.172.216-.117.546.123.737l.007.005.104.083c.142.105.272.159.414.242.299.185.546.338.743.522.076.082.09.226.1.288l.16.143a6.462 6.462 0 0 0-1.02 4.506l-.208.06c-.055.072-.133.184-.215.217-.257.081-.546.11-.895.147-.164.014-.305.006-.48.039-.037.007-.09.02-.133.03l-.004.002-.007.002c-.295.071-.484.342-.423.608.061.267.349.429.645.365l.007-.001.01-.003.129-.029c.17-.046.294-.113.448-.172.33-.118.604-.217.87-.256.112-.009.23.069.288.101l.217-.037a6.5 6.5 0 0 0 2.88 3.596l-.09.218c.033.084.069.199.044.282-.097.252-.263.517-.452.813-.091.136-.185.242-.268.399-.02.037-.045.095-.064.134-.128.275-.034.591.213.71.248.12.556-.007.69-.282v-.002c.02-.039.046-.09.062-.127.07-.162.094-.301.144-.458.132-.332.205-.68.387-.897.05-.06.13-.082.215-.105l.113-.205a6.453 6.453 0 0 0 4.609.012l.106.192c.086.028.18.042.256.155.136.232.229.507.342.84.05.156.074.295.145.457.016.037.043.09.062.129.133.276.442.402.69.282.247-.118.341-.435.213-.71-.02-.039-.045-.096-.065-.134-.083-.156-.177-.261-.268-.398-.19-.296-.346-.541-.443-.793-.04-.13.007-.21.038-.294-.018-.022-.059-.144-.083-.202a6.499 6.499 0 0 0 2.88-3.622c.064.01.176.03.213.038.075-.05.144-.114.28-.104.266.039.54.138.87.256.154.06.277.128.448.173.036.01.088.019.13.028l.009.003.007.001c.297.064.584-.098.645-.365.06-.266-.128-.537-.423-.608zM16.4 9.701l-1.95 1.746v.005a.44.44 0 0 0 .173.757l.003.01 2.526.728a5.199 5.199 0 0 0-.108-1.674A5.208 5.208 0 0 0 16.4 9.7zm-4.013 5.325a.437.437 0 0 0-.404-.232.44.44 0 0 0-.372.233h-.002l-1.268 2.292a5.164 5.164 0 0 0 3.326.003l-1.27-2.296h-.01zm1.888-1.293a.44.44 0 0 0-.27.036.44.44 0 0 0-.214.572l-.003.004 1.01 2.438a5.15 5.15 0 0 0 2.081-2.615l-2.6-.44-.004.005z"/></symbol>
    <symbol id="snowflake" viewBox="0 0 24 24"><path fill="#7dd3fc" d="M7.602 12.4c.038-.151.076-.304.076-.456 0-.114-.038-.228-.038-.342-.114-.343-.304-.647-.646-.838l-4.87-2.777c-.685-.38-1.56-.152-1.94.533-.381.685-.153 1.56.532 1.94l2.701 1.56-2.701 1.56c-.685.38-.913 1.256-.533 1.94.38.685 1.256.914 1.94.533l4.832-2.777c.343-.267.571-.533.647-.876zm1.332 2.626c-.266-.038-.57.038-.837.19l-4.832 2.777c-.685.38-.913 1.256-.532 1.94.38.686 1.255.914 1.94.533l2.701-1.56v3.12c0 .8.647 1.408 1.446 1.408.799 0 1.407-.647 1.407-1.408v-5.592c0-.761-.57-1.37-1.293-1.408zm4.946-6.088c.266.038.57-.038.837-.19l4.832-2.777c.685-.38.913-1.256.532-1.94-.38-.686-1.255-.914-1.94-.533l-2.701 1.56V1.975c0-.799-.647-1.408-1.446-1.408-.799 0-1.446.609-1.446 1.408V7.53c0 .76.609 1.37 1.332 1.407zM3.265 5.97l4.832 2.777c.266.152.533.19.837.19.723-.038 1.331-.684 1.331-1.407V1.975c0-.799-.646-1.408-1.407-1.408-.799 0-1.446.647-1.446 1.408v3.12l-2.701-1.56c-.685-.38-1.56-.152-1.94.533-.419.646-.19 1.521.494 1.902zm18.22 8.184l-2.701 1.56 2.7 1.56c.686.38.914 1.256.533 1.94-.38.685-1.255.913-1.94.533l-4.832-2.778a1.644 1.644 0 01-.647-.798c-.037-.153-.076-.305-.076-.457 0-.114.039-.228.039-.342.114-.343.342-.647.646-.837l4.832-2.778c.685-.38 1.56-.152 1.94.533.457.609.19 1.484-.494 1.864z"/></symbol>
    <symbol id="databricks" viewBox="0 0 24 24"><path fill="#f97316" d="M.95 14.184L12 20.403l9.919-5.55v2.21L12 22.662l-10.484-5.96-.565.308v.77L12 24l11.05-6.218v-4.317l-.515-.309L12 19.118l-9.867-5.653v-2.21L12 16.805l11.05-6.218V6.32l-.515-.308L12 11.974 2.647 6.681 12 1.388l7.76 4.368.668-.411v-.566L12 0 .95 6.27v.72L12 13.207l9.919-5.55v2.26L12 15.52 1.516 9.56l-.565.308Z"/></symbol>
    <symbol id="clickhouse" viewBox="0 0 24 24"><path fill="#fbbf24" d="M21.333 10H24v4h-2.667ZM16 1.335h2.667v21.33H16Zm-5.333 0h2.666v21.33h-2.666ZM0 22.665V1.335h2.667v21.33zm5.333-21.33H8v21.33H5.333Z"/></symbol>
    <symbol id="google" viewBox="0 0 24 24">
      <path fill="#fca5a5" d="M12.48 10.92v3.28h7.84c-.24 1.84-.853 3.187-1.787 4.133-1.147 1.147-2.933 2.4-6.053 2.4-4.827 0-8.6-3.893-8.6-8.72s3.773-8.72 8.6-8.72c2.6 0 4.507 1.027 5.907 2.347l2.307-2.307C18.747 1.44 16.133 0 12.48 0 5.867 0 .307 5.387.307 12s5.56 12 12.173 12c3.573 0 6.267-1.173 8.373-3.36 2.16-2.16 2.84-5.213 2.84-7.667 0-.76-.053-1.467-.173-2.053H12.48z"/>
    </symbol>
  </defs>

  <rect width="1480" height="1120" fill="url(#bg)"/>
  <rect x="28" y="28" width="1424" height="1064" rx="34" fill="url(#hero)" stroke="#334155" stroke-width="2"/>

  <g font-family="Inter, Segoe UI, Arial, sans-serif">
    <text x="76" y="92" fill="#f8fafc" font-size="40" font-weight="800">Skill map</text>
    <text x="76" y="128" fill="#dbe4f0" font-size="22" font-weight="600">44 shipped skill bundles grouped by layer. Same SKILL.md + src/ + tests/ contract across all of them.</text>
    <text x="76" y="158" fill="#8fa1b9" font-size="16">Each tile is a real folder under skills/. Vendor marks are nominative only.</text>

    <!-- Summary strip -->
    <g transform="translate(76,188)">
      <rect x="0" y="0" width="1328" height="64" rx="18" fill="#0e1c34" stroke="#41536f" stroke-width="2"/>
      <g font-size="15">
        <text x="24" y="40" fill="#93c5fd" font-weight="800" letter-spacing="1.2">TOTALS</text>
        <rect x="110" y="16" width="144" height="32" rx="10" fill="#17233a" stroke="#60a5fa"/>
        <text x="128" y="37" fill="#e5eefb" font-weight="700">Ingest · 15</text>
        <rect x="266" y="16" width="160" height="32" rx="10" fill="#17233a" stroke="#67e8f9"/>
        <text x="284" y="37" fill="#e5eefb" font-weight="700">Discover · 4</text>
        <rect x="438" y="16" width="144" height="32" rx="10" fill="#17233a" stroke="#5eead4"/>
        <text x="456" y="37" fill="#e5eefb" font-weight="700">Detect · 9</text>
        <rect x="594" y="16" width="160" height="32" rx="10" fill="#17233a" stroke="#c4b5fd"/>
        <text x="612" y="37" fill="#e5eefb" font-weight="700">Evaluate · 7</text>
        <rect x="766" y="16" width="170" height="32" rx="10" fill="#17233a" stroke="#fdba74"/>
        <text x="784" y="37" fill="#e5eefb" font-weight="700">Remediate · 1</text>
        <rect x="948" y="16" width="124" height="32" rx="10" fill="#17233a" stroke="#f0abfc"/>
        <text x="966" y="37" fill="#e5eefb" font-weight="700">View · 2</text>
        <rect x="1084" y="16" width="220" height="32" rx="10" fill="#0b1a2e" stroke="#475569"/>
        <text x="1102" y="37" fill="#cbd5e1" font-weight="700">Edges · 3 source + 3 sink</text>
      </g>
    </g>

    <!-- Row 1: Ingest -->
    <g transform="translate(76,272)">
      <rect x="0" y="0" width="1328" height="200" rx="24" fill="#0c1a31" stroke="url(#ingestStroke)" stroke-width="2.5"/>
      <text x="26" y="38" fill="#93c5fd" font-size="14" font-weight="800" letter-spacing="1.8">L1 · INGEST</text>
      <text x="26" y="66" fill="#f8fafc" font-size="22" font-weight="800">Raw source → stable event stream (native or OCSF 1.8)</text>
      <text x="26" y="90" fill="#8fa1b9" font-size="14">skills/ingestion/</text>

      <g font-size="13" font-weight="700" fill="#e5eefb">
        <!-- Row 1 of tiles -->
        <g transform="translate(26,108)">
          <rect x="0" y="0" width="210" height="32" rx="10" fill="#15284a" stroke="#60a5fa"/>
          <use href="#aws" x="10" y="8" width="16" height="16"/>
          <text x="32" y="21">ingest-cloudtrail-ocsf</text>

          <rect x="220" y="0" width="210" height="32" rx="10" fill="#15284a" stroke="#60a5fa"/>
          <use href="#aws" x="230" y="8" width="16" height="16"/>
          <text x="252" y="21">ingest-guardduty-ocsf</text>

          <rect x="440" y="0" width="210" height="32" rx="10" fill="#15284a" stroke="#60a5fa"/>
          <use href="#aws" x="450" y="8" width="16" height="16"/>
          <text x="472" y="21">ingest-security-hub-ocsf</text>

          <rect x="660" y="0" width="210" height="32" rx="10" fill="#15284a" stroke="#60a5fa"/>
          <use href="#aws" x="670" y="8" width="16" height="16"/>
          <text x="692" y="21">ingest-vpc-flow-logs-ocsf</text>

          <rect x="880" y="0" width="200" height="32" rx="10" fill="#15284a" stroke="#60a5fa"/>
          <use href="#gcp" x="890" y="8" width="16" height="16"/>
          <text x="912" y="21">ingest-gcp-audit-ocsf</text>

          <rect x="1090" y="0" width="186" height="32" rx="10" fill="#15284a" stroke="#60a5fa"/>
          <use href="#gcp" x="1100" y="8" width="16" height="16"/>
          <text x="1122" y="21">ingest-gcp-scc-ocsf</text>
        </g>

        <g transform="translate(26,146)">
          <rect x="0" y="0" width="230" height="32" rx="10" fill="#15284a" stroke="#60a5fa"/>
          <use href="#gcp" x="10" y="8" width="16" height="16"/>
          <text x="32" y="21">ingest-vpc-flow-logs-gcp-ocsf</text>

          <rect x="266" y="0" width="210" height="32" rx="10" fill="#15284a" stroke="#60a5fa"/>
          <use href="#azure" x="276" y="8" width="16" height="16"/>
          <text x="298" y="21">ingest-azure-activity-ocsf</text>

          <rect x="486" y="0" width="268" height="32" rx="10" fill="#15284a" stroke="#60a5fa"/>
          <use href="#azure" x="496" y="8" width="16" height="16"/>
          <text x="518" y="21">ingest-azure-defender-for-cloud-ocsf</text>

          <rect x="764" y="0" width="240" height="32" rx="10" fill="#15284a" stroke="#60a5fa"/>
          <use href="#azure" x="774" y="8" width="16" height="16"/>
          <text x="796" y="21">ingest-nsg-flow-logs-azure-ocsf</text>

          <rect x="1014" y="0" width="186" height="32" rx="10" fill="#15284a" stroke="#60a5fa"/>
          <use href="#k8s" x="1024" y="8" width="16" height="16"/>
          <text x="1046" y="21">ingest-k8s-audit-ocsf</text>

          <rect x="1210" y="0" width="66" height="32" rx="10" fill="#0b1a2e" stroke="#475569"/>
          <text x="1226" y="21" fill="#94a3b8">+4</text>
        </g>
      </g>

      <text x="26" y="192" fill="#94a3b8" font-size="13">Also: ingest-okta-system-log-ocsf · ingest-entra-directory-audit-ocsf · ingest-google-workspace-login-ocsf · ingest-mcp-proxy-ocsf</text>
    </g>

    <!-- Row 2: Discover + Evaluate side-by-side -->
    <g transform="translate(76,492)">
      <rect x="0" y="0" width="640" height="198" rx="24" fill="#0a2436" stroke="url(#discoverStroke)" stroke-width="2.5"/>
      <text x="26" y="38" fill="#67e8f9" font-size="14" font-weight="800" letter-spacing="1.8">L2 · DISCOVER</text>
      <text x="26" y="66" fill="#f8fafc" font-size="22" font-weight="800">Inventory, graph, AI BOM, evidence</text>
      <text x="26" y="90" fill="#8fa1b9" font-size="14">skills/discovery/ · read-only</text>

      <g font-size="13" font-weight="700" fill="#e5eefb">
        <rect x="26" y="108" width="270" height="32" rx="10" fill="#123649" stroke="#67e8f9"/>
        <text x="40" y="129">discover-environment</text>

        <rect x="306" y="108" width="288" height="32" rx="10" fill="#123649" stroke="#67e8f9"/>
        <text x="320" y="129">discover-ai-bom (CycloneDX AI BOM)</text>

        <rect x="26" y="146" width="270" height="32" rx="10" fill="#123649" stroke="#67e8f9"/>
        <text x="40" y="167">discover-control-evidence</text>

        <rect x="306" y="146" width="288" height="32" rx="10" fill="#123649" stroke="#67e8f9"/>
        <text x="320" y="167">discover-cloud-control-evidence</text>
      </g>
    </g>

    <g transform="translate(764,492)">
      <rect x="0" y="0" width="640" height="198" rx="24" fill="#1c1733" stroke="url(#evaluateStroke)" stroke-width="2.5"/>
      <text x="26" y="38" fill="#c4b5fd" font-size="14" font-weight="800" letter-spacing="1.8">L4 · EVALUATE</text>
      <text x="26" y="66" fill="#f8fafc" font-size="22" font-weight="800">Benchmarks and posture</text>
      <text x="26" y="90" fill="#8fa1b9" font-size="14">skills/evaluation/ · read-only · 82 checks across 7 skills</text>

      <g font-size="13" font-weight="700" fill="#e5eefb">
        <rect x="26" y="108" width="188" height="32" rx="10" fill="#261c48" stroke="#c4b5fd"/>
        <use href="#aws" x="36" y="116" width="16" height="16"/>
        <text x="58" y="129">cspm-aws-cis · 18</text>

        <rect x="224" y="108" width="188" height="32" rx="10" fill="#261c48" stroke="#c4b5fd"/>
        <use href="#gcp" x="234" y="116" width="16" height="16"/>
        <text x="256" y="129">cspm-gcp-cis · 7</text>

        <rect x="422" y="108" width="188" height="32" rx="10" fill="#261c48" stroke="#c4b5fd"/>
        <use href="#azure" x="432" y="116" width="16" height="16"/>
        <text x="454" y="129">cspm-azure-cis · 6</text>

        <rect x="26" y="146" width="188" height="32" rx="10" fill="#261c48" stroke="#c4b5fd"/>
        <use href="#k8s" x="36" y="154" width="16" height="16"/>
        <text x="58" y="167">k8s-benchmark · 10</text>

        <rect x="224" y="146" width="188" height="32" rx="10" fill="#261c48" stroke="#c4b5fd"/>
        <text x="240" y="167">container-security · 8</text>

        <rect x="422" y="146" width="188" height="32" rx="10" fill="#261c48" stroke="#c4b5fd"/>
        <text x="438" y="167">model-serving · 20</text>
      </g>
      <text x="26" y="188" fill="#94a3b8" font-size="13">+ gpu-cluster-security · 13 checks</text>
    </g>

    <!-- Row 3: Detect -->
    <g transform="translate(76,710)">
      <rect x="0" y="0" width="1328" height="196" rx="24" fill="#0a2b2a" stroke="url(#detectStroke)" stroke-width="2.5"/>
      <text x="26" y="38" fill="#5eead4" font-size="14" font-weight="800" letter-spacing="1.8">L3 · DETECT</text>
      <text x="26" y="66" fill="#f8fafc" font-size="22" font-weight="800">Deterministic rules → OCSF 2004 Detection Finding with MITRE ATT&amp;CK</text>
      <text x="26" y="90" fill="#8fa1b9" font-size="14">skills/detection/ · one check per function · one finding per rule · frozen golden fixtures</text>

      <g font-size="13" font-weight="700" fill="#e5eefb">
        <g transform="translate(26,108)">
          <rect x="0" y="0" width="244" height="32" rx="10" fill="#123c3c" stroke="#5eead4"/>
          <text x="16" y="21">detect-lateral-movement</text>

          <rect x="256" y="0" width="296" height="32" rx="10" fill="#123c3c" stroke="#5eead4"/>
          <use href="#k8s" x="266" y="8" width="16" height="16"/>
          <text x="288" y="21">detect-privilege-escalation-k8s</text>

          <rect x="568" y="0" width="300" height="32" rx="10" fill="#123c3c" stroke="#5eead4"/>
          <use href="#k8s" x="578" y="8" width="16" height="16"/>
          <text x="600" y="21">detect-sensitive-secret-read-k8s</text>

          <rect x="884" y="0" width="210" height="32" rx="10" fill="#123c3c" stroke="#5eead4"/>
          <rect x="894" y="8" width="30" height="16" rx="4" fill="#1b1235" stroke="#a78bfa"/>
          <text x="909" y="20" text-anchor="middle" fill="#c4b5fd" font-size="10" font-weight="800">MCP</text>
          <text x="932" y="21">detect-mcp-tool-drift</text>

          <rect x="1110" y="0" width="166" height="32" rx="10" fill="#123c3c" stroke="#5eead4"/>
          <use href="#okta" x="1120" y="8" width="16" height="16"/>
          <text x="1142" y="21">okta-mfa-fatigue</text>
        </g>
        <g transform="translate(26,146)">
          <rect x="0" y="0" width="280" height="32" rx="10" fill="#123c3c" stroke="#5eead4"/>
          <use href="#entra" x="10" y="8" width="16" height="16"/>
          <text x="32" y="21">detect-entra-credential-addition</text>

          <rect x="318" y="0" width="290" height="32" rx="10" fill="#123c3c" stroke="#5eead4"/>
          <use href="#entra" x="328" y="8" width="16" height="16"/>
          <text x="350" y="21">detect-entra-role-grant-escalation</text>

          <rect x="620" y="0" width="334" height="32" rx="10" fill="#123c3c" stroke="#5eead4"/>
          <use href="#google" x="630" y="8" width="16" height="16"/>
          <text x="652" y="21">detect-google-workspace-suspicious-login</text>

          <rect x="964" y="0" width="312" height="32" rx="10" fill="#123c3c" stroke="#5eead4"/>
          <rect x="974" y="8" width="30" height="16" rx="4" fill="#1b1235" stroke="#a78bfa"/>
          <text x="989" y="20" text-anchor="middle" fill="#c4b5fd" font-size="10" font-weight="800">MCP</text>
          <text x="1012" y="21">detect-prompt-injection-mcp-proxy</text>
        </g>
      </g>
    </g>

    <!-- Row 4: Remediate, View, Edges -->
    <g transform="translate(76,926)">
      <rect x="0" y="0" width="436" height="138" rx="24" fill="#2a1708" stroke="url(#remediateStroke)" stroke-width="2.5"/>
      <text x="26" y="38" fill="#fdba74" font-size="14" font-weight="800" letter-spacing="1.8">L5 · REMEDIATE</text>
      <text x="26" y="68" fill="#f8fafc" font-size="20" font-weight="800">Guarded writes · HITL · dual audit</text>

      <g font-size="13" font-weight="700" fill="#fef3c7">
        <rect x="26" y="84" width="384" height="34" rx="10" fill="#3a2410" stroke="#fdba74"/>
        <use href="#aws" x="38" y="93" width="16" height="16"/>
        <use href="#gcp" x="60" y="93" width="16" height="16"/>
        <use href="#azure" x="82" y="93" width="16" height="16"/>
        <text x="108" y="106" fill="#fef3c7">iam-departures-remediation</text>
      </g>
    </g>

    <g transform="translate(560,926)">
      <rect x="0" y="0" width="330" height="138" rx="24" fill="#2a0f2e" stroke="url(#viewStroke)" stroke-width="2.5"/>
      <text x="26" y="38" fill="#f0abfc" font-size="14" font-weight="800" letter-spacing="1.8">L6 · VIEW</text>
      <text x="26" y="68" fill="#f8fafc" font-size="20" font-weight="800">Findings → review formats</text>

      <g font-size="13" font-weight="700" fill="#f5d0fe">
        <rect x="26" y="84" width="278" height="28" rx="9" fill="#3b1240" stroke="#f0abfc"/>
        <text x="40" y="103">convert-ocsf-to-sarif</text>

        <rect x="26" y="116" width="278" height="16" rx="7" fill="#3b1240" stroke="#f0abfc"/>
      </g>
      <text x="40" y="127" font-size="13" font-weight="700" fill="#f5d0fe">convert-ocsf-to-mermaid-attack-flow</text>
    </g>

    <g transform="translate(938,926)">
      <rect x="0" y="0" width="466" height="138" rx="24" fill="#0f1c2e" stroke="#64748b" stroke-width="2"/>
      <text x="26" y="38" fill="#cbd5e1" font-size="14" font-weight="800" letter-spacing="1.8">EDGES</text>
      <text x="26" y="68" fill="#f8fafc" font-size="20" font-weight="800">Warehouse sources and sinks</text>

      <g font-size="13" font-weight="700" fill="#e5eefb">
        <rect x="26" y="84" width="134" height="30" rx="9" fill="#15233a" stroke="#67e8f9"/>
        <use href="#snowflake" x="36" y="92" width="16" height="16"/>
        <text x="58" y="104">source-snowflake</text>

        <rect x="168" y="84" width="134" height="30" rx="9" fill="#15233a" stroke="#67e8f9"/>
        <use href="#databricks" x="178" y="92" width="16" height="16"/>
        <text x="200" y="104">source-databricks</text>

        <rect x="310" y="84" width="130" height="30" rx="9" fill="#15233a" stroke="#67e8f9"/>
        <use href="#aws" x="320" y="92" width="16" height="16"/>
        <text x="342" y="104">source-s3-select</text>

        <rect x="26" y="118" width="134" height="16" rx="7" fill="#15233a" stroke="#a78bfa"/>
        <rect x="168" y="118" width="134" height="16" rx="7" fill="#15233a" stroke="#a78bfa"/>
        <rect x="310" y="118" width="130" height="16" rx="7" fill="#15233a" stroke="#a78bfa"/>
      </g>
      <g font-size="12" font-weight="700" fill="#ddd6fe">
        <text x="42" y="130">sink-snowflake</text>
        <text x="184" y="130">sink-clickhouse</text>
        <text x="332" y="130">sink-s3-jsonl</text>
      </g>
    </g>
  </g>
</svg>
