<svg xmlns="http://www.w3.org/2000/svg" width="1600" height="980" viewBox="0 0 1600 980" role="img" aria-labelledby="title desc">
  <title id="title">Snowflake security data lake closed-loop architecture</title>
  <desc id="desc">Clean lane diagram showing signals, OCSF normalization, append-only Snowflake storage, read-only replay, skill outputs, HITL approval, audit write-back, row access policies, dynamic tables, and optional managed Iceberg.</desc>
  <defs>
    <linearGradient id="bg" x1="0" y1="0" x2="1" y2="1"><stop offset="0" stop-color="#06101f"/><stop offset="0.52" stop-color="#0a1528"/><stop offset="1" stop-color="#101827"/></linearGradient>
    <linearGradient id="snowFill" x1="0" y1="0" x2="1" y2="1"><stop offset="0" stop-color="#123d73"/><stop offset="1" stop-color="#081f3e"/></linearGradient>
    <linearGradient id="snowStroke" x1="0" y1="0" x2="1" y2="0"><stop offset="0" stop-color="#93c5fd"/><stop offset="0.5" stop-color="#29b5e8"/><stop offset="1" stop-color="#dbeafe"/></linearGradient>
    <pattern id="grid" width="48" height="48" patternUnits="userSpaceOnUse"><path d="M48 0H0V48" fill="none" stroke="#20314f" stroke-opacity="0.24" stroke-width="1"/></pattern>
    <filter id="shadow" x="-20%" y="-20%" width="140%" height="140%"><feDropShadow dx="0" dy="18" stdDeviation="18" flood-color="#020617" flood-opacity="0.42"/></filter>
    <filter id="softShadow" x="-14%" y="-14%" width="128%" height="128%"><feDropShadow dx="0" dy="10" stdDeviation="10" flood-color="#020617" flood-opacity="0.28"/></filter>
    <marker id="arrowBlue" viewBox="0 0 10 10" refX="9" refY="5" markerWidth="10" markerHeight="10" orient="auto"><path d="M0 0L10 5L0 10Z" fill="#60a5fa"/></marker>
    <marker id="arrowViolet" viewBox="0 0 10 10" refX="9" refY="5" markerWidth="10" markerHeight="10" orient="auto"><path d="M0 0L10 5L0 10Z" fill="#a78bfa"/></marker>
    <marker id="arrowGreen" viewBox="0 0 10 10" refX="9" refY="5" markerWidth="10" markerHeight="10" orient="auto"><path d="M0 0L10 5L0 10Z" fill="#34d399"/></marker>
    <marker id="arrowRose" viewBox="0 0 10 10" refX="9" refY="5" markerWidth="10" markerHeight="10" orient="auto"><path d="M0 0L10 5L0 10Z" fill="#fb7185"/></marker>
    <style>.font{font-family:Inter,ui-sans-serif,system-ui,-apple-system,BlinkMacSystemFont,"Segoe UI",Arial,sans-serif}.h1{font-size:34px;font-weight:850;fill:#f8fafc}.sub{font-size:15px;fill:#cbd5e1}.eyebrow{font-size:11px;font-weight:850;letter-spacing:.08em;text-transform:uppercase}.cardTitle{font-size:17px;font-weight:850;fill:#f8fafc}.cardSub{font-size:13px;fill:#cbd5e1}.body{font-size:12px;fill:#cbd5e1}.tiny{font-size:11px;fill:#94a3b8}.badge{font-size:12px;font-weight:850;fill:#f8fafc}.mono{font-family:ui-monospace,SFMono-Regular,Menlo,Monaco,Consolas,"Liberation Mono",monospace}</style>
  </defs>
  <rect width="1600" height="980" fill="url(#bg)"/><rect width="1600" height="980" fill="url(#grid)"/>
  <g class="font">
    <text x="64" y="64" class="h1">Snowflake Security Data Lake</text>
    <text x="64" y="94" class="sub">Warehouse-native storage, governed replay, and audit closure for cloud, identity, SaaS, Kubernetes, and MCP security events.</text>
    <g transform="translate(1246,42)"><rect x="0" y="0" width="290" height="70" rx="14" fill="#101827" stroke="#334155"/><g transform="translate(43,35)"><line x1="-22" y1="0" x2="22" y2="0" stroke="#93c5fd" stroke-width="3" stroke-linecap="round"/><line x1="0" y1="-22" x2="0" y2="22" stroke="#93c5fd" stroke-width="3" stroke-linecap="round"/><line x1="-16" y1="-16" x2="16" y2="16" stroke="#60a5fa" stroke-width="3" stroke-linecap="round"/><line x1="16" y1="-16" x2="-16" y2="16" stroke="#60a5fa" stroke-width="3" stroke-linecap="round"/><circle cx="0" cy="0" r="5" fill="#102a4c" stroke="#dbeafe" stroke-width="2"/></g><text x="108" y="29" class="cardTitle">Snowflake pack</text><text x="108" y="51" class="tiny">DDL · dynamic tables · row policies · Iceberg</text></g>
    <g transform="translate(64,138)"><rect x="0" y="0" width="146" height="30" rx="15" fill="#0c2a4d" stroke="#2563eb"/><text x="73" y="20" text-anchor="middle" class="eyebrow" fill="#bfdbfe">Write lane</text></g>
    <g transform="translate(64,574)"><rect x="0" y="0" width="150" height="30" rx="15" fill="#1e1b4b" stroke="#6d28d9"/><text x="75" y="20" text-anchor="middle" class="eyebrow" fill="#c4b5fd">Replay lane</text></g>
    <g transform="translate(64,820)"><rect x="0" y="0" width="174" height="30" rx="15" fill="#4c0519" stroke="#9f1239"/><text x="87" y="20" text-anchor="middle" class="eyebrow" fill="#fda4af">Governance lane</text></g>
    <g filter="url(#softShadow)"><rect x="64" y="190" width="312" height="318" rx="18" fill="#101827" stroke="#334155"/><text x="92" y="230" class="cardTitle">Covered signals</text><text x="92" y="253" class="cardSub">Existing ingest and source coverage</text>
      <g transform="translate(92,284)"><g><rect x="0" y="0" width="118" height="58" rx="12" fill="#172033" stroke="#475569"/><circle cx="27" cy="29" r="17" fill="#ff9900"/><text x="27" y="34" text-anchor="middle" font-size="10" font-weight="900" fill="#111827">AWS</text><text x="55" y="26" class="badge">AWS</text><text x="55" y="43" class="tiny">trail · flow</text></g><g transform="translate(134,0)"><rect x="0" y="0" width="118" height="58" rx="12" fill="#172033" stroke="#475569"/><circle cx="27" cy="29" r="17" fill="#4285f4"/><text x="27" y="34" text-anchor="middle" font-size="10" font-weight="900" fill="#fff">GCP</text><text x="55" y="26" class="badge">GCP</text><text x="55" y="43" class="tiny">audit · SCC</text></g><g transform="translate(0,74)"><rect x="0" y="0" width="118" height="58" rx="12" fill="#172033" stroke="#475569"/><circle cx="27" cy="29" r="17" fill="#2563eb"/><text x="27" y="34" text-anchor="middle" font-size="10" font-weight="900" fill="#fff">AZ</text><text x="55" y="26" class="badge">Azure</text><text x="55" y="43" class="tiny">activity · NSG</text></g><g transform="translate(134,74)"><rect x="0" y="0" width="118" height="58" rx="12" fill="#172033" stroke="#475569"/><circle cx="27" cy="29" r="17" fill="#111827" stroke="#94a3b8"/><text x="27" y="34" text-anchor="middle" font-size="9" font-weight="900" fill="#f8fafc">ID</text><text x="55" y="26" class="badge">Identity</text><text x="55" y="43" class="tiny">Entra · Okta</text></g><g transform="translate(0,148)"><rect x="0" y="0" width="118" height="58" rx="12" fill="#172033" stroke="#475569"/><circle cx="27" cy="29" r="17" fill="#326ce5"/><text x="27" y="34" text-anchor="middle" font-size="9" font-weight="900" fill="#fff">K8s</text><text x="55" y="26" class="badge">Runtime</text><text x="55" y="43" class="tiny">K8s · MCP</text></g><g transform="translate(134,148)"><rect x="0" y="0" width="118" height="58" rx="12" fill="#172033" stroke="#475569"/><circle cx="27" cy="29" r="17" fill="#29b5e8"/><text x="27" y="34" text-anchor="middle" font-size="9" font-weight="900" fill="#082f49">SF</text><text x="55" y="26" class="badge">SaaS</text><text x="55" y="43" class="tiny">Snowflake · GH</text></g></g>
    </g>
    <g filter="url(#softShadow)"><rect x="438" y="222" width="238" height="254" rx="18" fill="#0c2a4d" stroke="#60a5fa"/><text x="468" y="262" class="cardTitle">Normalize</text><text x="468" y="286" class="cardSub">22 ingest skills</text><rect x="468" y="316" width="178" height="50" rx="12" fill="#1d4ed8" stroke="#93c5fd"/><text x="557" y="337" text-anchor="middle" class="badge">OCSF 1.8 JSONL</text><text x="557" y="356" text-anchor="middle" class="tiny" fill="#dbeafe">stdout pipe contract</text><text x="468" y="400" class="body">Stable IDs:</text><text x="468" y="422" class="mono" font-size="12" fill="#dbeafe">event_uid</text><text x="568" y="422" class="mono" font-size="12" fill="#dbeafe">finding_uid</text></g>
    <g filter="url(#softShadow)"><rect x="738" y="222" width="250" height="254" rx="18" fill="#111827" stroke="#60a5fa"/><text x="768" y="262" class="cardTitle">Write</text><text x="768" y="286" class="cardSub">sink-snowflake-jsonl</text><g transform="translate(768,320)"><rect x="0" y="0" width="190" height="34" rx="9" fill="#102a4c" stroke="#60a5fa"/><text x="95" y="22" text-anchor="middle" class="badge">append-only insert</text><rect x="0" y="48" width="190" height="34" rx="9" fill="#102a4c" stroke="#60a5fa"/><text x="95" y="70" text-anchor="middle" class="badge">dry-run default</text><rect x="0" y="96" width="190" height="34" rx="9" fill="#102a4c" stroke="#60a5fa"/><text x="95" y="118" text-anchor="middle" class="badge">identifier validated</text></g></g>
    <g filter="url(#shadow)"><rect x="1052" y="166" width="454" height="390" rx="22" fill="url(#snowFill)" stroke="url(#snowStroke)" stroke-width="2"/><g transform="translate(1124,222)"><line x1="-31" y1="0" x2="31" y2="0" stroke="#bfdbfe" stroke-width="5" stroke-linecap="round"/><line x1="0" y1="-31" x2="0" y2="31" stroke="#bfdbfe" stroke-width="5" stroke-linecap="round"/><line x1="-22" y1="-22" x2="22" y2="22" stroke="#60a5fa" stroke-width="5" stroke-linecap="round"/><line x1="22" y1="-22" x2="-22" y2="22" stroke="#60a5fa" stroke-width="5" stroke-linecap="round"/><circle cx="0" cy="0" r="8" fill="#0b2445" stroke="#dbeafe" stroke-width="3"/></g><text x="1184" y="225" font-size="24" font-weight="850" fill="#e0f2fe">Snowflake lake</text><text x="1184" y="250" class="body" fill="#dbeafe">pre-provisioned schema; row access policy applied</text>
      <g transform="translate(1086,290)"><rect x="0" y="0" width="178" height="70" rx="13" fill="#123d73" stroke="#93c5fd"/><text x="20" y="28" font-size="14" font-weight="850" fill="#e0f2fe">events_sink</text><text x="20" y="50" class="tiny" fill="#bfdbfe">90-day hot tier</text></g><g transform="translate(1284,290)"><rect x="0" y="0" width="178" height="70" rx="13" fill="#123d73" stroke="#93c5fd"/><text x="20" y="28" font-size="14" font-weight="850" fill="#e0f2fe">findings_sink</text><text x="20" y="50" class="tiny" fill="#bfdbfe">365-day history</text></g><g transform="translate(1086,380)"><rect x="0" y="0" width="178" height="70" rx="13" fill="#123d73" stroke="#93c5fd"/><text x="20" y="28" font-size="14" font-weight="850" fill="#e0f2fe">evidence_sink</text><text x="20" y="50" class="tiny" fill="#bfdbfe">7-year hold</text></g><g transform="translate(1284,380)"><rect x="0" y="0" width="178" height="70" rx="13" fill="#123d73" stroke="#93c5fd"/><text x="20" y="28" font-size="14" font-weight="850" fill="#e0f2fe">audit_sink</text><text x="20" y="50" class="tiny" fill="#bfdbfe">legal-hold chain</text></g><rect x="1086" y="476" width="180" height="52" rx="13" fill="#0b2445" stroke="#93c5fd" stroke-dasharray="6 5"/><text x="1176" y="498" text-anchor="middle" font-size="13" font-weight="850" fill="#e0f2fe">dynamic tables</text><text x="1176" y="518" text-anchor="middle" class="tiny" fill="#bfdbfe">volume rollups</text><rect x="1284" y="476" width="178" height="52" rx="13" fill="#0b2445" stroke="#93c5fd" stroke-dasharray="6 5"/><text x="1373" y="498" text-anchor="middle" font-size="13" font-weight="850" fill="#e0f2fe">managed Iceberg</text><text x="1373" y="518" text-anchor="middle" class="tiny" fill="#bfdbfe">open-format option</text></g>
    <g filter="url(#softShadow)"><rect x="738" y="622" width="250" height="162" rx="18" fill="#1e1b4b" stroke="#a78bfa"/><text x="768" y="662" class="cardTitle">Read</text><text x="768" y="686" class="cardSub">source-snowflake-query</text><rect x="768" y="716" width="190" height="38" rx="10" fill="#312e81" stroke="#a78bfa"/><text x="863" y="740" text-anchor="middle" class="badge">read-only SQL gate</text><text x="768" y="770" class="tiny" fill="#c4b5fd">SELECT · WITH · SHOW · DESCRIBE</text></g>
    <g filter="url(#softShadow)"><rect x="438" y="622" width="238" height="162" rx="18" fill="#2e1065" stroke="#a78bfa"/><text x="468" y="662" class="cardTitle">Replay rows</text><text x="468" y="688" class="body">detect-* rules</text><text x="468" y="712" class="body">Snowflake-native detections</text><text x="468" y="736" class="body">control evidence</text><text x="468" y="764" class="tiny" fill="#c4b5fd">UID-aware windows for de-dupe</text></g>
    <g filter="url(#softShadow)"><rect x="64" y="622" width="312" height="162" rx="18" fill="#052e2b" stroke="#34d399"/><text x="92" y="662" class="cardTitle">Operator artifacts</text><text x="92" y="690" class="body">new findings</text><text x="92" y="714" class="body">SARIF handoff</text><text x="92" y="738" class="body">Mermaid attack-flow</text><text x="92" y="762" class="body">dashboard query pack</text></g>
    <g filter="url(#softShadow)"><rect x="438" y="858" width="238" height="72" rx="18" fill="#4c0519" stroke="#fb7185"/><text x="468" y="887" class="cardTitle">HITL response</text><text x="468" y="910" class="tiny" fill="#fecdd3">dry-run first · approved window</text></g><g filter="url(#softShadow)"><rect x="738" y="858" width="250" height="72" rx="18" fill="#4c0519" stroke="#fb7185"/><text x="768" y="887" class="cardTitle">Audit write-back</text><text x="768" y="910" class="tiny" fill="#fecdd3">remediation and MCP records</text></g><g filter="url(#softShadow)"><rect x="1052" y="858" width="454" height="72" rx="18" fill="#111827" stroke="#475569"/><text x="1084" y="887" class="cardTitle">Customer-owned boundary</text><text x="1084" y="906" class="tiny">Account, warehouse, grants, retention, row policy,</text><text x="1084" y="922" class="tiny">credentials, and dashboard access stay under operator control.</text></g>
    <path d="M376 349H438" stroke="#60a5fa" stroke-width="3.2" marker-end="url(#arrowBlue)" fill="none"/><path d="M676 349H738" stroke="#60a5fa" stroke-width="3.2" marker-end="url(#arrowBlue)" fill="none"/><path d="M988 349H1052" stroke="#60a5fa" stroke-width="3.2" marker-end="url(#arrowBlue)" fill="none"/><text x="1002" y="333" class="tiny" fill="#bfdbfe">insert</text>
    <path d="M1052 703H988" stroke="#60a5fa" stroke-width="3.2" marker-end="url(#arrowBlue)" fill="none"/><text x="1000" y="686" class="tiny" fill="#bfdbfe">query</text><path d="M738 703H676" stroke="#a78bfa" stroke-width="3.2" marker-end="url(#arrowViolet)" fill="none"/><path d="M438 703H376" stroke="#34d399" stroke-width="3.2" marker-end="url(#arrowGreen)" fill="none"/>
    <path d="M220 784V812C220 834 250 846 290 846H1320C1350 846 1366 828 1366 802V556" stroke="#34d399" stroke-width="2.6" marker-end="url(#arrowGreen)" fill="none" stroke-dasharray="9 8"/><text x="650" y="834" class="tiny" fill="#a7f3d0">artifact rows can re-land through sink-snowflake-jsonl</text>
    <path d="M676 894H738" stroke="#fb7185" stroke-width="3.2" marker-end="url(#arrowRose)" fill="none"/><path d="M988 894H1052" stroke="#fb7185" stroke-width="3.2" marker-end="url(#arrowRose)" fill="none"/><path d="M863 858V818C863 804 878 796 904 796H1402V556" stroke="#fb7185" stroke-width="2.6" marker-end="url(#arrowRose)" fill="none" stroke-dasharray="9 8"/><text x="1008" y="778" class="tiny" fill="#fda4af">audit_sink captures decisions and tool activity</text>
    <g transform="translate(64,952)"><circle cx="0" cy="0" r="5" fill="#60a5fa"/><text x="18" y="4" class="tiny">write</text><circle cx="88" cy="0" r="5" fill="#a78bfa"/><text x="106" y="4" class="tiny">read</text><circle cx="168" cy="0" r="5" fill="#34d399"/><text x="186" y="4" class="tiny">artifact</text><circle cx="268" cy="0" r="5" fill="#fb7185"/><text x="286" y="4" class="tiny">audit</text></g><text x="560" y="956" class="tiny" fill="#94a3b8">Append-only tables preserve history; stable UIDs support duplicate-aware replay queries.</text>
  </g>
</svg>
